<?xml version="1.0" encoding="UTF-8"?>
<svg width="309px" height="329px" viewBox="0 0 309 329" version="1.1" xmlns="http://www.w3.org/2000/svg" xmlns:xlink="http://www.w3.org/1999/xlink">
    <!-- Generator: Sketch 50.2 (55047) - http://www.bohemiancoding.com/sketch -->
    <title>ngHighCountry</title>
    <desc>Created with Sketch.</desc>
    <defs>
        <linearGradient x1="50%" y1="42.4447023%" x2="50%" y2="0%" id="linearGradient-1">
            <stop stop-color="#74A0CA" offset="0%"></stop>
            <stop stop-color="#40669A" offset="100%"></stop>
        </linearGradient>
        <polygon id="path-2" points="139.722222 0 139.722222 0 139.722222 0 0.237293144 49.7411348 21.5121158 234.172872 139.722222 299.64539 139.722222 299.64539 139.722222 299.64539 257.932329 234.172872 279.207151 49.7411348"></polygon>
        <filter x="-7.9%" y="-6.7%" width="115.8%" height="114.7%" filterUnits="objectBoundingBox" id="filter-4">
            <feMorphology radius="3" operator="dilate" in="SourceAlpha" result="shadowSpreadOuter1"></feMorphology>
            <feOffset dx="0" dy="2" in="shadowSpreadOuter1" result="shadowOffsetOuter1"></feOffset>
            <feGaussianBlur stdDeviation="6" in="shadowOffsetOuter1" result="shadowBlurOuter1"></feGaussianBlur>
            <feComposite in="shadowBlurOuter1" in2="SourceAlpha" operator="out" result="shadowBlurOuter1"></feComposite>
            <feColorMatrix values="0 0 0 0 0   0 0 0 0 0   0 0 0 0 0  0 0 0 0.2 0" type="matrix" in="shadowBlurOuter1"></feColorMatrix>
        </filter>
        <linearGradient x1="50%" y1="47.9016927%" x2="50%" y2="0%" id="linearGradient-5">
            <stop stop-color="#4B80B3" offset="0%"></stop>
            <stop stop-color="#24497C" offset="100%"></stop>
        </linearGradient>
        <linearGradient x1="50%" y1="57.8107632%" x2="47.7703813%" y2="0%" id="linearGradient-6">
            <stop stop-color="#E1E8F2" offset="0%"></stop>
            <stop stop-color="#A4BFE3" offset="100%"></stop>
        </linearGradient>
        <linearGradient x1="66.4953829%" y1="80.1182257%" x2="52.0782131%" y2="28.2509824%" id="linearGradient-7">
            <stop stop-color="#D2E0F1" offset="0%"></stop>
            <stop stop-color="#88A4CC" offset="100%"></stop>
        </linearGradient>
        <path d="M139.635112,19 L61,196 L61,196 L90.3192771,196 L90.3192771,196 L106.127367,156.395402 L172.872633,156.395402 L188.680723,196 L188.680723,196 L218,196 L218,196 L139.635112,19 L139.635112,19 L139.635112,19 L139.635112,19 L139.635112,19 Z M162.604131,131.981609 L116.666093,131.981609 L139.635112,76.508046 L162.604131,131.981609 Z" id="path-8"></path>
        <filter x="-9.2%" y="-8.2%" width="119.7%" height="117.5%" filterUnits="objectBoundingBox" id="filter-9">
            <feOffset dx="1" dy="1" in="SourceAlpha" result="shadowOffsetOuter1"></feOffset>
            <feGaussianBlur stdDeviation="5" in="shadowOffsetOuter1" result="shadowBlurOuter1"></feGaussianBlur>
            <feColorMatrix values="0 0 0 0 0.137342289   0 0 0 0 0.264894587   0 0 0 0 0.439439838  0 0 0 0.75 0" type="matrix" in="shadowBlurOuter1"></feColorMatrix>
        </filter>
        <linearGradient x1="40.7391212%" y1="72.3929497%" x2="47.5744278%" y2="24.9596092%" id="linearGradient-10">
            <stop stop-color="#ABC7E4" offset="0%"></stop>
            <stop stop-color="#7395C4" offset="100%"></stop>
        </linearGradient>
        <linearGradient x1="50%" y1="86.5299501%" x2="50%" y2="7.54473624%" id="linearGradient-11">
            <stop stop-color="#97B6D7" offset="0%"></stop>
            <stop stop-color="#5D80AF" offset="100%"></stop>
        </linearGradient>
        <linearGradient x1="44.9768117%" y1="103.054456%" x2="48.7276787%" y2="19.7745003%" id="linearGradient-12">
            <stop stop-color="#749FCA" offset="0%"></stop>
            <stop stop-color="#40669A" offset="100%"></stop>
        </linearGradient>
        <path d="M32.082,205.424 L34.854,205.424 L34.854,211.716 L42.136,211.716 L42.136,205.424 L44.908,205.424 L44.908,221 L42.136,221 L42.136,214.092 L34.854,214.092 L34.854,221 L32.082,221 L32.082,205.424 Z M48.192,210.44 L50.832,210.44 L50.832,221 L48.192,221 L48.192,210.44 Z M47.818,206.854 C47.818,206.428665 47.9756651,206.058335 48.291,205.743 C48.6063349,205.427665 49.0059976,205.27 49.49,205.27 C49.9740024,205.27 50.3809983,205.420332 50.711,205.721 C51.0410016,206.021668 51.206,206.399331 51.206,206.854 C51.206,207.308669 51.0410016,207.686332 50.711,207.987 C50.3809983,208.287668 49.9740024,208.438 49.49,208.438 C49.0059976,208.438 48.6063349,208.280335 48.291,207.965 C47.9756651,207.649665 47.818,207.279335 47.818,206.854 Z M64.72,210.44 L64.72,220.054 C64.72,221.007338 64.6026678,221.868996 64.368,222.639 C64.1333321,223.409004 63.7703358,224.061664 63.279,224.597 C62.7876642,225.132336 62.1680037,225.546665 61.42,225.84 C60.6719962,226.133335 59.7846718,226.28 58.758,226.28 C58.3326645,226.28 57.881669,226.243334 57.405,226.17 C56.9283309,226.096666 56.4590023,225.986667 55.997,225.84 C55.5349977,225.693333 55.0913354,225.510001 54.666,225.29 C54.2406645,225.069999 53.859335,224.820668 53.522,224.542 L55.04,222.496 C55.5533359,222.980002 56.1326634,223.350332 56.778,223.607 C57.4233365,223.863668 58.0759967,223.992 58.736,223.992 C59.3666698,223.992 59.8983312,223.900334 60.331,223.717 C60.7636688,223.533666 61.108332,223.280668 61.365,222.958 C61.6216679,222.635332 61.8049994,222.254002 61.915,221.814 C62.0250005,221.373998 62.08,220.890003 62.08,220.362 L62.08,219.592 L62.036,219.592 C61.6546647,220.105336 61.167003,220.497665 60.573,220.769 C59.978997,221.040335 59.315337,221.176 58.582,221.176 C57.789996,221.176 57.0713365,221.029335 56.426,220.736 C55.7806634,220.442665 55.2343356,220.046669 54.787,219.548 C54.3396644,219.049331 53.9913346,218.466337 53.742,217.799 C53.4926654,217.131663 53.368,216.424004 53.368,215.676 C53.368,214.91333 53.4889988,214.19467 53.731,213.52 C53.9730012,212.84533 54.3176644,212.258669 54.765,211.76 C55.2123356,211.261331 55.7549968,210.865335 56.393,210.572 C57.0310032,210.278665 57.745996,210.132 58.538,210.132 C59.2860037,210.132 59.9826634,210.285998 60.628,210.594 C61.2733365,210.902002 61.7866647,211.378663 62.168,212.024 L62.212,212.024 L62.212,210.44 L64.72,210.44 Z M59.088,212.288 C58.6039976,212.288 58.1750019,212.375999 57.801,212.552 C57.4269981,212.728001 57.1116679,212.966332 56.855,213.267 C56.598332,213.567668 56.400334,213.923331 56.261,214.334 C56.121666,214.744669 56.052,215.184664 56.052,215.654 C56.052,216.079335 56.121666,216.489998 56.261,216.886 C56.400334,217.282002 56.598332,217.637665 56.855,217.953 C57.1116679,218.268335 57.4269981,218.521332 57.801,218.712 C58.1750019,218.902668 58.5966643,218.998 59.066,218.998 C59.5500024,218.998 59.9863314,218.906334 60.375,218.723 C60.7636686,218.539666 61.0936653,218.294002 61.365,217.986 C61.6363347,217.677998 61.8453326,217.322335 61.992,216.919 C62.1386674,216.515665 62.212,216.094002 62.212,215.654 C62.212,215.199331 62.1386674,214.766669 61.992,214.356 C61.8453326,213.945331 61.6363347,213.586002 61.365,213.278 C61.0936653,212.969998 60.7673352,212.728001 60.386,212.552 C60.0046647,212.375999 59.5720024,212.288 59.088,212.288 Z M73.702,210.132 C74.3913368,210.132 74.9816642,210.252999 75.473,210.495 C75.9643358,210.737001 76.3676651,211.055998 76.683,211.452 C76.9983349,211.848002 77.2293326,212.302664 77.376,212.816 C77.5226674,213.329336 77.596,213.857331 77.596,214.4 L77.596,221 L74.956,221 L74.956,215.192 C74.956,214.883998 74.9340002,214.565002 74.89,214.235 C74.8459998,213.904998 74.754334,213.604335 74.615,213.333 C74.475666,213.061665 74.2776679,212.838001 74.021,212.662 C73.764332,212.485999 73.4233355,212.398 72.998,212.398 C72.5726645,212.398 72.2060015,212.478666 71.898,212.64 C71.5899985,212.801334 71.3333344,213.017665 71.128,213.289 C70.9226656,213.560335 70.7686672,213.864665 70.666,214.202 C70.5633328,214.539335 70.512,214.883998 70.512,215.236 L70.512,221 L67.872,221 L67.872,204.368 L70.512,204.368 L70.512,211.914 L70.556,211.914 C70.6586672,211.693999 70.808999,211.477668 71.007,211.265 C71.205001,211.052332 71.4359987,210.861668 71.7,210.693 C71.9640013,210.524332 72.264665,210.388667 72.602,210.286 C72.939335,210.183333 73.305998,210.132 73.702,210.132 Z M97.43,209.076 C97.0193313,208.518664 96.4840033,208.111668 95.824,207.855 C95.1639967,207.598332 94.5186698,207.47 93.888,207.47 C93.0813293,207.47 92.3480033,207.616665 91.688,207.91 C91.0279967,208.203335 90.459669,208.606664 89.983,209.12 C89.5063309,209.633336 89.1396679,210.234663 88.883,210.924 C88.626332,211.613337 88.498,212.361329 88.498,213.168 C88.498,214.018671 88.6226654,214.795996 88.872,215.5 C89.1213346,216.204004 89.4769977,216.808997 89.939,217.315 C90.4010023,217.821003 90.9546634,218.213332 91.6,218.492 C92.2453366,218.770668 92.9713293,218.91 93.778,218.91 C94.6140042,218.91 95.3546634,218.745002 96,218.415 C96.6453366,218.084998 97.165998,217.648669 97.562,217.106 L99.784,218.668 C99.0946632,219.533338 98.2513383,220.204331 97.254,220.681 C96.2566617,221.157669 95.0906733,221.396 93.756,221.396 C92.5386606,221.396 91.4203384,221.194335 90.401,220.791 C89.3816616,220.387665 88.505337,219.823004 87.772,219.097 C87.038663,218.370996 86.4666687,217.505672 86.056,216.501 C85.6453313,215.496328 85.44,214.385339 85.44,213.168 C85.44,211.921327 85.6563312,210.795672 86.089,209.791 C86.5216688,208.786328 87.1156629,207.932004 87.871,207.228 C88.6263371,206.523996 89.5173282,205.981335 90.544,205.6 C91.5706718,205.218665 92.6853273,205.028 93.888,205.028 C94.3866692,205.028 94.9073306,205.075666 95.45,205.171 C95.9926694,205.266334 96.5133308,205.412999 97.012,205.611 C97.5106692,205.809001 97.9799978,206.054665 98.42,206.348 C98.8600022,206.641335 99.2339985,206.993331 99.542,207.404 L97.43,209.076 Z M100.428,215.676 C100.428,214.839996 100.578332,214.081003 100.879,213.399 C101.179668,212.716997 101.586664,212.134002 102.1,211.65 C102.613336,211.165998 103.221996,210.792001 103.926,210.528 C104.630004,210.263999 105.377996,210.132 106.17,210.132 C106.962004,210.132 107.709996,210.263999 108.414,210.528 C109.118004,210.792001 109.726664,211.165998 110.24,211.65 C110.753336,212.134002 111.160332,212.716997 111.461,213.399 C111.761668,214.081003 111.912,214.839996 111.912,215.676 C111.912,216.512004 111.761668,217.274663 111.461,217.964 C111.160332,218.653337 110.753336,219.243664 110.24,219.735 C109.726664,220.226336 109.118004,220.611332 108.414,220.89 C107.709996,221.168668 106.962004,221.308 106.17,221.308 C105.377996,221.308 104.630004,221.168668 103.926,220.89 C103.221996,220.611332 102.613336,220.226336 102.1,219.735 C101.586664,219.243664 101.179668,218.653337 100.879,217.964 C100.578332,217.274663 100.428,216.512004 100.428,215.676 Z M103.112,215.676 C103.112,216.086669 103.174333,216.497331 103.299,216.908 C103.423667,217.318669 103.610665,217.685332 103.86,218.008 C104.109335,218.330668 104.424665,218.594666 104.806,218.8 C105.187335,219.005334 105.641997,219.108 106.17,219.108 C106.698003,219.108 107.152665,219.005334 107.534,218.8 C107.915335,218.594666 108.230665,218.330668 108.48,218.008 C108.729335,217.685332 108.916333,217.318669 109.041,216.908 C109.165667,216.497331 109.228,216.086669 109.228,215.676 C109.228,215.265331 109.165667,214.858335 109.041,214.455 C108.916333,214.051665 108.729335,213.688668 108.48,213.366 C108.230665,213.043332 107.915335,212.783001 107.534,212.585 C107.152665,212.386999 106.698003,212.288 106.17,212.288 C105.641997,212.288 105.187335,212.386999 104.806,212.585 C104.424665,212.783001 104.109335,213.043332 103.86,213.366 C103.610665,213.688668 103.423667,214.051665 103.299,214.455 C103.174333,214.858335 103.112,215.265331 103.112,215.676 Z M124.04,221 L121.532,221 L121.532,219.306 L121.488,219.306 C121.253332,219.834003 120.846336,220.299665 120.267,220.703 C119.687664,221.106335 119.002004,221.308 118.21,221.308 C117.520663,221.308 116.930336,221.187001 116.439,220.945 C115.947664,220.702999 115.544335,220.384002 115.229,219.988 C114.913665,219.591998 114.682667,219.137336 114.536,218.624 C114.389333,218.110664 114.316,217.582669 114.316,217.04 L114.316,210.44 L116.956,210.44 L116.956,216.292 C116.956,216.600002 116.978,216.922665 117.022,217.26 C117.066,217.597335 117.161333,217.901665 117.308,218.173 C117.454667,218.444335 117.656332,218.667999 117.913,218.844 C118.169668,219.020001 118.510665,219.108 118.936,219.108 C119.346669,219.108 119.709665,219.023668 120.025,218.855 C120.340335,218.686332 120.596999,218.470001 120.795,218.206 C120.993001,217.941999 121.143333,217.637668 121.246,217.293 C121.348667,216.948332 121.4,216.600002 121.4,216.248 L121.4,210.44 L124.04,210.44 L124.04,221 Z M127.148,210.44 L129.656,210.44 L129.656,212.134 L129.7,212.134 C129.934668,211.605997 130.341664,211.140335 130.921,210.737 C131.500336,210.333665 132.185996,210.132 132.978,210.132 C133.667337,210.132 134.257664,210.252999 134.749,210.495 C135.240336,210.737001 135.643665,211.055998 135.959,211.452 C136.274335,211.848002 136.505333,212.302664 136.652,212.816 C136.798667,213.329336 136.872,213.857331 136.872,214.4 L136.872,221 L134.232,221 L134.232,215.148 C134.232,214.839998 134.21,214.517335 134.166,214.18 C134.122,213.842665 134.026667,213.538335 133.88,213.267 C133.733333,212.995665 133.531668,212.772001 133.275,212.596 C133.018332,212.419999 132.677335,212.332 132.252,212.332 C131.826665,212.332 131.460002,212.416332 131.152,212.585 C130.843998,212.753668 130.591001,212.969999 130.393,213.234 C130.194999,213.498001 130.044667,213.802332 129.942,214.147 C129.839333,214.491668 129.788,214.839998 129.788,215.192 L129.788,221 L127.148,221 L127.148,210.44 Z M138.374,212.552 L138.374,210.44 L140.222,210.44 L140.222,207.382 L142.818,207.382 L142.818,210.44 L145.458,210.44 L145.458,212.552 L142.818,212.552 L142.818,217.458 C142.818,217.927336 142.902332,218.315998 143.071,218.624 C143.239668,218.932002 143.61733,219.086 144.204,219.086 C144.380001,219.086 144.570666,219.067667 144.776,219.031 C144.981334,218.994333 145.164666,218.939334 145.326,218.866 L145.414,220.934 C145.179332,221.022 144.900668,221.091666 144.578,221.143 C144.255332,221.194334 143.947335,221.22 143.654,221.22 C142.949996,221.22 142.378002,221.121001 141.938,220.923 C141.497998,220.724999 141.149668,220.453668 140.893,220.109 C140.636332,219.764332 140.460334,219.368336 140.365,218.921 C140.269666,218.473664 140.222,217.993336 140.222,217.48 L140.222,212.552 L138.374,212.552 Z M147.312,210.44 L149.842,210.44 L149.842,212.2 L149.886,212.2 C150.179335,211.583997 150.589997,211.085335 151.118,210.704 C151.646003,210.322665 152.261996,210.132 152.966,210.132 C153.068667,210.132 153.178666,210.135667 153.296,210.143 C153.413334,210.150333 153.516,210.168667 153.604,210.198 L153.604,212.618 C153.427999,212.574 153.277667,212.544667 153.153,212.53 C153.028333,212.515333 152.907334,212.508 152.79,212.508 C152.188664,212.508 151.704669,212.617999 151.338,212.838 C150.971332,213.058001 150.685334,213.321998 150.48,213.63 C150.274666,213.938002 150.135334,214.253332 150.062,214.576 C149.988666,214.898668 149.952,215.155332 149.952,215.346 L149.952,221 L147.312,221 L147.312,210.44 Z M153.676,210.44 L156.602,210.44 L159.55,218.118 L159.594,218.118 L162.212,210.44 L164.962,210.44 L159.968,223.266 C159.777332,223.750002 159.572001,224.178998 159.352,224.553 C159.131999,224.927002 158.868002,225.242332 158.56,225.499 C158.251998,225.755668 157.889002,225.949999 157.471,226.082 C157.052998,226.214001 156.55067,226.28 155.964,226.28 C155.743999,226.28 155.520334,226.269 155.293,226.247 C155.065666,226.225 154.834668,226.184667 154.6,226.126 L154.82,223.838 C154.996001,223.896667 155.168332,223.937 155.337,223.959 C155.505668,223.981 155.663333,223.992 155.81,223.992 C156.088668,223.992 156.323332,223.959 156.514,223.893 C156.704668,223.827 156.865999,223.724334 156.998,223.585 C157.130001,223.445666 157.247333,223.273334 157.35,223.068 C157.452667,222.862666 157.562666,222.620668 157.68,222.342 L158.208,221 L153.676,210.44 Z M176.546,205.424 L178.944,205.424 L185.654,221 L182.486,221 L181.034,217.436 L174.28,217.436 L172.872,221 L169.77,221 L176.546,205.424 Z M180.066,215.06 L177.668,208.724 L175.226,215.06 L180.066,215.06 Z M187.002,210.44 L189.51,210.44 L189.51,212.134 L189.554,212.134 C189.788668,211.605997 190.195664,211.140335 190.775,210.737 C191.354336,210.333665 192.039996,210.132 192.832,210.132 C193.521337,210.132 194.111664,210.252999 194.603,210.495 C195.094336,210.737001 195.497665,211.055998 195.813,211.452 C196.128335,211.848002 196.359333,212.302664 196.506,212.816 C196.652667,213.329336 196.726,213.857331 196.726,214.4 L196.726,221 L194.086,221 L194.086,215.148 C194.086,214.839998 194.064,214.517335 194.02,214.18 C193.976,213.842665 193.880667,213.538335 193.734,213.267 C193.587333,212.995665 193.385668,212.772001 193.129,212.596 C192.872332,212.419999 192.531335,212.332 192.106,212.332 C191.680665,212.332 191.314002,212.416332 191.006,212.585 C190.697998,212.753668 190.445001,212.969999 190.247,213.234 C190.048999,213.498001 189.898667,213.802332 189.796,214.147 C189.693333,214.491668 189.642,214.839998 189.642,215.192 L189.642,221 L187.002,221 L187.002,210.44 Z M210.482,210.44 L210.482,220.054 C210.482,221.007338 210.364668,221.868996 210.13,222.639 C209.895332,223.409004 209.532336,224.061664 209.041,224.597 C208.549664,225.132336 207.930004,225.546665 207.182,225.84 C206.433996,226.133335 205.546672,226.28 204.52,226.28 C204.094665,226.28 203.643669,226.243334 203.167,226.17 C202.690331,226.096666 202.221002,225.986667 201.759,225.84 C201.296998,225.693333 200.853335,225.510001 200.428,225.29 C200.002665,225.069999 199.621335,224.820668 199.284,224.542 L200.802,222.496 C201.315336,222.980002 201.894663,223.350332 202.54,223.607 C203.185337,223.863668 203.837997,223.992 204.498,223.992 C205.12867,223.992 205.660331,223.900334 206.093,223.717 C206.525669,223.533666 206.870332,223.280668 207.127,222.958 C207.383668,222.635332 207.566999,222.254002 207.677,221.814 C207.787001,221.373998 207.842,220.890003 207.842,220.362 L207.842,219.592 L207.798,219.592 C207.416665,220.105336 206.929003,220.497665 206.335,220.769 C205.740997,221.040335 205.077337,221.176 204.344,221.176 C203.551996,221.176 202.833337,221.029335 202.188,220.736 C201.542663,220.442665 200.996336,220.046669 200.549,219.548 C200.101664,219.049331 199.753335,218.466337 199.504,217.799 C199.254665,217.131663 199.13,216.424004 199.13,215.676 C199.13,214.91333 199.250999,214.19467 199.493,213.52 C199.735001,212.84533 200.079664,212.258669 200.527,211.76 C200.974336,211.261331 201.516997,210.865335 202.155,210.572 C202.793003,210.278665 203.507996,210.132 204.3,210.132 C205.048004,210.132 205.744663,210.285998 206.39,210.594 C207.035337,210.902002 207.548665,211.378663 207.93,212.024 L207.974,212.024 L207.974,210.44 L210.482,210.44 Z M204.85,212.288 C204.365998,212.288 203.937002,212.375999 203.563,212.552 C203.188998,212.728001 202.873668,212.966332 202.617,213.267 C202.360332,213.567668 202.162334,213.923331 202.023,214.334 C201.883666,214.744669 201.814,215.184664 201.814,215.654 C201.814,216.079335 201.883666,216.489998 202.023,216.886 C202.162334,217.282002 202.360332,217.637665 202.617,217.953 C202.873668,218.268335 203.188998,218.521332 203.563,218.712 C203.937002,218.902668 204.358664,218.998 204.828,218.998 C205.312002,218.998 205.748331,218.906334 206.137,218.723 C206.525669,218.539666 206.855665,218.294002 207.127,217.986 C207.398335,217.677998 207.607333,217.322335 207.754,216.919 C207.900667,216.515665 207.974,216.094002 207.974,215.654 C207.974,215.199331 207.900667,214.766669 207.754,214.356 C207.607333,213.945331 207.398335,213.586002 207.127,213.278 C206.855665,212.969998 206.529335,212.728001 206.148,212.552 C205.766665,212.375999 205.334002,212.288 204.85,212.288 Z M223.226,221 L220.718,221 L220.718,219.306 L220.674,219.306 C220.439332,219.834003 220.032336,220.299665 219.453,220.703 C218.873664,221.106335 218.188004,221.308 217.396,221.308 C216.706663,221.308 216.116336,221.187001 215.625,220.945 C215.133664,220.702999 214.730335,220.384002 214.415,219.988 C214.099665,219.591998 213.868667,219.137336 213.722,218.624 C213.575333,218.110664 213.502,217.582669 213.502,217.04 L213.502,210.44 L216.142,210.44 L216.142,216.292 C216.142,216.600002 216.164,216.922665 216.208,217.26 C216.252,217.597335 216.347333,217.901665 216.494,218.173 C216.640667,218.444335 216.842332,218.667999 217.099,218.844 C217.355668,219.020001 217.696665,219.108 218.122,219.108 C218.532669,219.108 218.895665,219.023668 219.211,218.855 C219.526335,218.686332 219.782999,218.470001 219.981,218.206 C220.179001,217.941999 220.329333,217.637668 220.432,217.293 C220.534667,216.948332 220.586,216.600002 220.586,216.248 L220.586,210.44 L223.226,210.44 L223.226,221 Z M226.378,204.368 L229.018,204.368 L229.018,221 L226.378,221 L226.378,204.368 Z M238.726,219.658 L238.66,219.658 C238.395999,220.127336 237.97067,220.512332 237.384,220.813 C236.79733,221.113668 236.130004,221.264 235.382,221.264 C234.956665,221.264 234.513002,221.209001 234.051,221.099 C233.588998,220.988999 233.163669,220.805668 232.775,220.549 C232.386331,220.292332 232.063668,219.955002 231.807,219.537 C231.550332,219.118998 231.422,218.602003 231.422,217.986 C231.422,217.193996 231.645664,216.563336 232.093,216.094 C232.540336,215.624664 233.115996,215.265335 233.82,215.016 C234.524004,214.766665 235.304996,214.601667 236.163,214.521 C237.021004,214.440333 237.860663,214.4 238.682,214.4 L238.682,214.136 C238.682,213.475997 238.443669,212.988335 237.967,212.673 C237.490331,212.357665 236.922003,212.2 236.262,212.2 C235.704664,212.2 235.169336,212.317332 234.656,212.552 C234.142664,212.786668 233.717335,213.072665 233.38,213.41 L232.016,211.804 C232.617336,211.246664 233.310329,210.828668 234.095,210.55 C234.879671,210.271332 235.675329,210.132 236.482,210.132 C237.420671,210.132 238.19433,210.263999 238.803,210.528 C239.41167,210.792001 239.891998,211.136665 240.244,211.562 C240.596002,211.987335 240.841666,212.463997 240.981,212.992 C241.120334,213.520003 241.19,214.047997 241.19,214.576 L241.19,221 L238.726,221 L238.726,219.658 Z M238.682,216.182 L238.088,216.182 C237.662665,216.182 237.215336,216.200333 236.746,216.237 C236.276664,216.273667 235.844002,216.354333 235.448,216.479 C235.051998,216.603667 234.722001,216.779666 234.458,217.007 C234.193999,217.234334 234.062,217.545998 234.062,217.942 C234.062,218.191335 234.116999,218.400332 234.227,218.569 C234.337001,218.737668 234.479999,218.873333 234.656,218.976 C234.832001,219.078667 235.029999,219.152 235.25,219.196 C235.470001,219.24 235.689999,219.262 235.91,219.262 C236.819338,219.262 237.508664,219.020002 237.978,218.536 C238.447336,218.051998 238.682,217.392004 238.682,216.556 L238.682,216.182 Z M244.21,210.44 L246.74,210.44 L246.74,212.2 L246.784,212.2 C247.077335,211.583997 247.487997,211.085335 248.016,210.704 C248.544003,210.322665 249.159996,210.132 249.864,210.132 C249.966667,210.132 250.076666,210.135667 250.194,210.143 C250.311334,210.150333 250.414,210.168667 250.502,210.198 L250.502,212.618 C250.325999,212.574 250.175667,212.544667 250.051,212.53 C249.926333,212.515333 249.805334,212.508 249.688,212.508 C249.086664,212.508 248.602669,212.617999 248.236,212.838 C247.869332,213.058001 247.583334,213.321998 247.378,213.63 C247.172666,213.938002 247.033334,214.253332 246.96,214.576 C246.886666,214.898668 246.85,215.155332 246.85,215.346 L246.85,221 L244.21,221 L244.21,210.44 Z" id="path-13"></path>
        <filter x="-2.3%" y="-18.3%" width="104.6%" height="145.6%" filterUnits="objectBoundingBox" id="filter-14">
            <feOffset dx="0" dy="1" in="SourceAlpha" result="shadowOffsetOuter1"></feOffset>
            <feGaussianBlur stdDeviation="1.5" in="shadowOffsetOuter1" result="shadowBlurOuter1"></feGaussianBlur>
            <feColorMatrix values="0 0 0 0 0.117647059   0 0 0 0 0.211764706   0 0 0 0 0.341176471  0 0 0 0.65 0" type="matrix" in="shadowBlurOuter1"></feColorMatrix>
        </filter>
    </defs>
    <g id="ngHighCountry" stroke="none" stroke-width="1" fill="none" fill-rule="evenodd">
        <g transform="translate(15.000000, 12.500000)">
            <mask id="mask-3" fill="white">
                <use xlink:href="#path-2"></use>
            </mask>
            <g id="shield" fill-rule="nonzero">
                <use fill="black" fill-opacity="1" filter="url(#filter-4)" xlink:href="#path-2"></use>
                <path stroke="#FFFFFF" stroke-width="3" d="M139.722222,-1.59252231 L280.833884,48.7287148 L259.334033,235.111225 L139.722222,301.360099 L20.1104112,235.111225 L-1.38943973,48.7287148 L139.722222,-1.59252231 Z" fill="url(#linearGradient-1)" fill-rule="evenodd"></path>
            </g>
            <polygon id="shield-shade" fill="url(#linearGradient-5)" fill-rule="nonzero" mask="url(#mask-3)" points="139.444444 33.3 139.444444 185.1 139.444444 300 257.794444 234.45 279.094444 49.8 139.444444 0"></polygon>
            <path d="M182.628711,147.053026 C180.698122,146.958351 178.630639,147.145141 176.632242,146.963469 C174.572435,146.772841 172.728844,144.853766 170.813608,144.586375 C168.604113,144.276764 166.377986,145.041835 164.66873,144.633712 C162.308268,144.074622 159.821148,144.271647 157.444054,143.987624 C154.860979,143.679292 152.47493,142.587978 150.270552,142.549597 C146.949274,142.488187 144.133351,142.150429 142.848851,142.517612 C139.921622,143.354329 139.581306,144.449481 134.567404,144.029843 C132.171119,143.831539 129.88742,142.352572 127.683043,142.552156 C125.271406,142.769651 123.035044,143.689527 120.852416,143.472032 C119.525696,143.340256 117.508109,144.269088 115.03762,144.476348 C113.240086,144.628595 111.148295,143.880155 109.089767,144.13987 C107.154061,144.381674 105.252897,145.275962 103.333823,145.563824 C101.26506,145.868317 99.1246521,145.243978 97.3655002,145.538236 C94.893732,145.951477 93.2689154,147.530236 91.8859022,147.685041 C89.0520685,148.004887 87.6089243,147.669688 85.9226973,147.108039 C84.5588749,146.653858 81.8222743,146.50545 78.6545216,146.523361 C75.9985222,146.541272 73.2043494,145.293874 71.106161,145.293874 C68.9337684,145.293874 66.2803278,146.481141 63.7458698,146.395423 C60.918433,146.293072 58.3954894,144.981704 56.6286613,144.539038 C55.2635595,144.200001 52.547429,145.438444 49.5216879,145.403901 C47.3492953,145.375754 44.937658,144.142429 42.5426528,144.171855 C40.1067073,144.201281 37.6925113,144.256294 35.5738528,144.256294 C32.5148476,144.256294 30.6264781,145.975785 28.8289448,146.543831 C26.4441746,147.288432 24.3728533,147.142582 21.7513972,147.380548 C19.7734708,147.559661 17.9887313,148.891499 16.3536797,148.919646 C14.1902427,148.95163 12.3888713,147.610837 10.9572415,147.372871 C10.0987754,147.23086 7.58862568,146.515685 4.75863015,146.58861 C2.76918935,146.633388 0.577606007,146.916132 -1.38624713,146.998012 C-1.46940704,147.000571 -1.44509876,147.118274 -1.3581007,147.192478 L-1.3581007,206.311494 L183.609998,206.311494 L182.628711,147.053026 Z" id="Fill-1" fill="url(#linearGradient-6)" mask="url(#mask-3)" transform="translate(91.086259, 174.330241) rotate(8.000000) translate(-91.086259, -174.330241) "></path>
            <path d="M264.873839,96.1206619 C264.709946,96.1016873 264.541326,96.0621567 264.369554,96.0020703 C264.152081,95.9483088 263.92988,95.8961284 263.713983,95.8439481 C263.650948,95.8407857 263.586336,95.8233922 263.526452,95.8328796 C263.023743,95.9166843 262.629771,96.6171656 262.131789,96.7041328 C261.630656,96.7847751 261.055456,96.3894696 260.562202,96.4732744 C260.057917,96.5523355 259.541025,96.5033176 259.046196,96.5934473 C258.543487,96.6740896 258.129027,97.2449106 257.634198,97.325553 C257.131489,97.4077765 256.546833,96.9666156 256.055156,97.0472579 C255.549295,97.1310627 255.040282,97.1247378 254.548604,97.2022177 C254.042743,97.2812788 253.71023,98.4181772 253.22328,98.4956571 C252.718995,98.5794619 252.230469,98.7549775 251.743519,98.8324574 C251.226627,98.9099372 250.679793,98.7423277 250.161325,98.8387823 C249.642857,98.9336556 249.080264,98.7486526 248.563372,98.8593381 C248.048056,98.9684424 247.64778,99.5550757 247.138767,99.678411 C246.623451,99.8017463 245.901693,99.0854529 245.391105,99.2214379 C244.885244,99.3605855 244.456601,99.7985839 243.953892,99.9503812 C243.44488,100.102178 242.894894,100.106922 242.392185,100.268207 C241.892628,100.432654 241.443499,100.759967 240.948669,100.929158 C240.44596,101.104673 239.771479,100.805822 239.282953,100.987663 C238.786547,101.172666 238.361057,101.558484 237.874107,101.751393 C237.382429,101.949046 237.152349,102.794999 236.671702,102.995814 C236.183176,103.202954 235.748231,103.511293 235.272312,103.724758 C234.783786,103.936641 234.293684,104.107413 233.825644,104.325622 C233.337118,104.554899 232.746159,104.520112 232.282847,104.752552 C231.802201,104.989735 231.539027,105.626968 231.082019,105.867313 C230.602948,106.117146 229.758271,105.641199 229.310718,105.892613 C228.833223,106.158258 228.740246,107.050067 228.303724,107.306225 C227.830957,107.587683 226.935851,107.133872 226.511936,107.40268 C226.039169,107.701531 225.525429,107.902346 225.122001,108.180641 C224.721725,108.468423 224.452247,108.977577 224.010998,109.289077 C223.60757,109.57686 223.645392,110.530336 223.213598,110.837093 C222.805442,111.123295 221.875666,110.685296 221.437569,110.98731 C221.027837,111.271929 221.109784,112.309211 220.671686,112.606481 C220.258803,112.887938 219.237626,112.28233 218.796376,112.571694 C218.375614,112.853151 218.060436,113.29115 217.619186,113.578932 C217.193696,113.850902 217.13854,114.72848 216.692563,115.002032 C216.260769,115.270839 215.447609,114.929296 215.001632,115.196522 C214.566686,115.457424 214.097071,115.662982 213.646366,115.925465 C213.209845,116.180042 213.074318,116.997534 212.61731,117.250529 C212.174485,117.495619 211.514186,117.365958 211.052451,117.606304 C210.603322,117.843487 209.977693,117.735964 209.51123,117.969985 C209.055797,118.199262 208.693342,118.607218 208.222151,118.828589 C207.758839,119.045216 207.366443,119.407316 206.8921,119.616037 C206.425636,119.82634 205.957597,120.042967 205.480102,120.243782 C205.010486,120.441435 204.573965,120.730798 204.090166,120.923708 C203.611096,121.10871 203.286462,121.7159 202.79636,121.896159 C202.318865,122.071675 201.811429,122.226634 201.324478,122.392663 C200.839104,122.55711 200.344275,122.615615 199.882539,122.80378 C199.408196,122.995108 198.680134,122.587153 198.223126,122.80378 C197.766118,123.02357 197.238194,123.159555 196.801673,123.399901 C196.35412,123.643409 196.136647,124.301197 195.709581,124.566843 C195.279363,124.832488 194.894845,125.172451 194.480386,125.45707 C194.065927,125.746434 193.768084,126.192339 193.364656,126.497514 C192.962803,126.799528 192.573559,127.106285 192.181162,127.427273 C191.788765,127.745098 190.986637,127.57907 190.608423,127.911127 C190.223906,128.241602 189.818902,128.568915 189.448568,128.91204 C189.076658,129.255165 189.139693,130.067913 188.778814,130.415782 C188.413208,130.765232 187.749758,130.807925 187.392031,131.166863 C187.035879,131.522637 186.920839,132.126664 186.564688,132.485602 C186.208537,132.850864 185.370163,132.732272 185.018739,133.094372 C184.662588,133.458053 184.684651,134.186996 184.331651,134.545934 C183.973924,134.909615 183.359327,135.006069 183.006327,135.366588 C182.650176,135.722363 182.941716,136.740669 182.579261,137.090119 C182.219958,137.449057 181.107379,137.009477 180.740197,137.355765 C180.369863,137.705215 180.670858,138.782027 180.297372,139.112502 C179.917582,139.455627 179.087088,139.264299 178.700994,139.58845 C178.31175,139.9126 177.768067,140.009055 177.370943,140.314231 C176.969091,140.62415 176.664944,141.027362 176.253637,141.311982 C175.851784,141.593439 175.656374,142.20221 175.230884,142.504223 C174.830607,142.785681 174.562706,143.282184 174.143519,143.588941 C173.740091,143.875142 173.240534,144.039589 172.818195,144.341603 C172.419495,144.63571 171.771804,144.600923 171.354193,144.90768 C170.952341,145.200206 170.7916,145.835857 170.381869,146.139452 C169.976865,146.43514 169.732602,146.953781 169.319718,147.260538 C168.913139,147.553064 168.441947,147.766529 168.03064,148.070124 C167.628788,148.368975 167.241119,148.69945 166.831387,149.004626 C166.423232,149.305058 166.150603,149.784168 165.744023,150.083019 C165.335867,150.38187 164.330449,149.863229 163.920717,150.163662 C163.512562,150.462512 163.197384,150.902092 162.79238,151.197781 C162.379497,151.496632 162.3858,152.37421 161.976069,152.671479 C161.561609,152.97033 160.661776,152.584512 160.252044,152.883363 C159.832858,153.180633 159.873831,154.116716 159.462523,154.402917 C159.043336,154.700187 158.531172,154.855147 158.116713,155.14451 C157.694374,155.435455 157.319312,155.786486 156.904853,156.067944 C156.479363,156.355726 156.252434,156.936035 155.837975,157.211167 C155.410909,157.497368 154.640298,157.25386 154.224263,157.52583 C153.789317,157.807288 153.507233,158.313279 153.084894,158.572599 C152.643645,158.850894 152.331619,159.326842 151.907704,159.576675 C151.457,159.84232 150.930652,159.959331 150.50201,160.196514 C150.043426,160.454253 149.706185,160.94127 149.275967,161.157897 C148.800048,161.398243 148.090897,161.119948 147.655952,161.306532 C147.173729,161.510509 146.589074,161.463073 146.144673,161.676538 C145.671905,161.907396 145.345696,162.395994 144.912326,162.631596 C144.445863,162.878266 144.28197,163.591397 143.862783,163.844393 C143.410503,164.119525 142.543763,163.684689 142.134031,163.958241 C141.695934,164.252348 141.650233,165.068258 141.257836,165.357622 C140.832346,165.675448 139.90257,165.311767 139.524357,165.616942 C139.109897,165.960068 138.780536,166.386997 138.422809,166.704823 C138.013078,167.065342 138.112359,167.936595 137.767239,168.260745 C137.362235,168.640239 136.500223,168.455236 136.161406,168.773061 C135.740644,169.158879 135.285211,169.326489 134.936939,169.588972 C134.617034,169.829317 134.297128,170.24676 133.739263,170.604116 C133.342138,170.861855 132.822094,171.008909 132.317809,171.318828 C131.892319,171.578149 131.580293,172.080977 131.088615,172.371922 C130.655245,172.631242 130.544933,173.502496 130.061134,173.785534 C129.621461,174.03853 128.713748,173.526214 128.234677,173.801347 C127.787124,174.057505 127.289143,174.261482 126.8148,174.53029 C126.652483,174.622001 126.534291,174.792773 126.423979,174.980938 C126.228568,175.327226 126.067828,175.743087 125.760529,175.913859 C125.308248,176.166854 124.627464,176.043519 124.153121,176.30284 C123.692961,176.558998 123.47076,177.254735 122.996417,177.517218 C122.533105,177.770213 122.099735,178.097526 121.623816,178.353684 C121.162081,178.60668 120.637309,178.752152 120.164542,179.014635 C119.694926,179.261306 119.062994,179.209125 118.588651,179.462121 C118.119036,179.711954 117.82592,180.304912 117.353153,180.554745 C116.933966,180.777697 116.423378,180.913682 115.949035,181.191977 C115.533,181.438648 115.334437,182.090111 114.877429,182.377894 C114.464546,182.643539 113.827886,182.588196 113.383485,182.880722 C112.969026,183.152693 112.168473,182.883885 111.731952,183.177992 C111.320644,183.464193 111.196149,184.196299 110.765931,184.496731 C110.356199,184.782932 109.925981,185.067552 109.498915,185.369566 C109.089183,185.66051 108.849648,186.207613 108.428885,186.512789 C108.017578,186.81164 107.406132,186.840102 106.986945,187.145278 C106.580366,187.448872 105.874367,187.358743 105.45518,187.667081 C105.051752,187.970675 105.300743,189.169242 104.887859,189.480742 C104.48128,189.785918 103.404946,189.20561 102.992063,189.520273 C102.587059,189.830192 102.617001,190.725164 102.20727,191.036665 C101.802266,191.346584 101.610007,191.945867 101.205003,192.26053 C100.798423,192.575193 99.7157867,192.01386 99.309207,192.328523 C98.9026272,192.643186 98.9026272,193.485977 98.4991993,193.80064 C98.0910436,194.120047 97.2841877,193.925557 96.8854874,194.24022 C96.4789076,194.561208 96.1842161,195.021344 95.782364,195.339169 C95.3773602,195.660157 95.3600254,196.469743 94.9597492,196.781243 C94.5500177,197.105394 94.041005,197.290397 93.6407288,197.609804 C93.2341491,197.933954 92.8843014,198.32926 92.4887529,198.643923 C92.0805972,198.971236 91.2516788,198.754608 90.8577062,199.072434 C90.4479747,199.399747 90.6701752,200.50344 90.2746267,200.818103 C89.8648952,201.148578 89.032825,200.931951 88.6420042,201.243451 C88.2259691,201.577089 88.0778354,202.217484 87.6933181,202.525822 C87.2757071,202.865785 86.9904709,203.332245 86.6091054,203.637421 C86.1820391,203.980546 85.2144423,203.588403 84.8393804,203.887254 C84.3965552,204.243029 84.2893946,204.940348 83.9316675,205.221806 C83.4384137,205.613949 82.8332718,205.666129 82.5228214,205.898569 C82.1083622,206.213232 82.1288487,206.994355 81.8436126,207.395986 C81.5504969,207.807103 81.6608093,208.347881 81.478006,208.822248 C81.405515,209.013576 81.203801,209.168535 80.9863281,209.320333 C81.4543676,209.486361 82.0453265,209.946496 82.3652323,209.802605 C82.7970263,209.604952 83.0349858,208.996182 83.4667798,208.804854 L274.986328,208.804854 L264.873839,96.1206619 Z" id="Fill-1" fill="url(#linearGradient-7)" mask="url(#mask-3)" transform="translate(177.986328, 152.830078) rotate(14.000000) translate(-177.986328, -152.830078) "></path>
            <g id="A-Copy" mask="url(#mask-3)" fill-rule="nonzero">
                <use fill="black" fill-opacity="1" filter="url(#filter-9)" xlink:href="#path-8"></use>
                <use fill="#FFFFFF" fill-rule="evenodd" xlink:href="#path-8"></use>
            </g>
            <path d="M18.5845624,135.221761 C18.7097099,135.207281 18.8384673,135.177113 18.9696315,135.131257 C19.1356925,135.090229 19.3053636,135.050407 19.4702213,135.010585 C19.5183549,135.008172 19.5676919,134.994898 19.6134188,135.002138 C19.9972846,135.066094 20.2981198,135.600672 20.6783755,135.667042 C21.0610379,135.728585 21.5002573,135.426904 21.876903,135.49086 C22.2619721,135.551196 22.6566679,135.513788 23.0345169,135.582571 C23.4183826,135.644114 23.7348613,136.079741 24.1127103,136.141283 C24.496576,136.204033 24.9430155,135.867358 25.3184578,135.9289 C25.7047302,135.992857 26.0934093,135.98803 26.4688517,136.047159 C26.8551241,136.107495 27.109029,136.975128 27.4808613,137.034258 C27.8659304,137.098214 28.2389661,137.23216 28.6107984,137.291289 C29.0054942,137.350419 29.4230535,137.222506 29.8189526,137.296116 C30.2148518,137.36852 30.6444444,137.227333 31.0391402,137.311804 C31.4326327,137.395068 31.7382813,137.842761 32.1269604,137.936886 C32.5204528,138.03101 33.0715829,137.484365 33.4614654,137.588143 C33.8477378,137.694335 34.1750465,138.028597 34.5589122,138.144442 C34.9475913,138.260287 35.3675573,138.263907 35.751423,138.386993 C36.1328821,138.512492 36.4758342,138.762283 36.8536833,138.891403 C37.237549,139.025349 37.7525789,138.797278 38.1256145,138.936051 C38.5046669,139.077238 38.8295689,139.371678 39.2014013,139.518898 C39.5768436,139.669738 39.7525314,140.315335 40.1195503,140.468588 C40.492586,140.626669 40.8247081,140.86198 41.188117,141.024887 C41.5611527,141.186588 41.9353917,141.316914 42.2927839,141.483441 C42.6658196,141.658416 43.1170724,141.631868 43.4708546,141.809256 C43.8378736,141.990265 44.0388315,142.476574 44.3878003,142.659995 C44.753616,142.850657 45.3986067,142.487434 45.7403555,142.679303 C46.1049677,142.882032 46.1759648,143.562623 46.5092903,143.758112 C46.8702925,143.972909 47.5537901,143.62658 47.8774888,143.831722 C48.2384911,144.059793 48.6307802,144.213046 48.9388355,144.425429 C49.244484,144.645053 49.4502553,145.033617 49.7871908,145.271341 C50.095246,145.490965 50.0663658,146.218618 50.3960812,146.452722 C50.7077465,146.671139 51.4177176,146.336877 51.7522464,146.567361 C52.065115,146.784571 52.0025413,147.57618 52.33707,147.803044 C52.6523453,148.017841 53.4321102,147.555666 53.7690456,147.776496 C54.0903376,147.991293 54.3310058,148.325555 54.6679413,148.545178 C54.9928433,148.752734 55.0349602,149.422465 55.3755057,149.631228 C55.7052211,149.836371 56.326145,149.575719 56.6666904,149.779655 C56.9988125,149.978764 57.3574081,150.135638 57.7015636,150.335953 C58.034889,150.530236 58.1383763,151.154111 58.4873451,151.347186 C58.8254839,151.534228 59.3296837,151.435277 59.6822626,151.618699 C60.0252147,151.799707 60.5029411,151.71765 60.85913,151.896245 C61.2068955,152.07122 61.4836639,152.382554 61.8434628,152.551495 C62.197245,152.716816 62.4968769,152.993155 62.8590825,153.152442 C63.2152713,153.312936 63.5726636,153.478257 63.9372759,153.631511 C64.2958714,153.782351 64.6291968,154.003181 64.9986225,154.150401 C65.3644381,154.291588 65.6123263,154.754969 65.9865653,154.892535 C66.3511776,155.026481 66.7386534,155.14474 67.1104857,155.271446 C67.4811147,155.396945 67.8589637,155.441594 68.2115426,155.585194 C68.5737482,155.731207 69.1296916,155.419873 69.4786605,155.585194 C69.8276293,155.752928 70.2307485,155.856706 70.5640739,156.040128 C70.9058227,156.225963 71.0718838,156.727959 71.3979892,156.930689 C71.7265012,157.133418 72.0201164,157.392863 72.336595,157.610073 C72.6530737,157.830903 72.8805051,158.171199 73.1885603,158.404096 C73.4954123,158.63458 73.7926375,158.868684 74.0922693,159.113649 C74.3919012,159.3562 75.0044017,159.229494 75.2932035,159.482906 C75.5868187,159.73511 75.8960773,159.984902 76.1788624,160.246761 C76.4628508,160.508619 76.4147172,161.128874 76.6902822,161.394353 C76.9694573,161.661039 77.4760638,161.69362 77.7492222,161.967546 C78.0211772,162.239058 78.1090211,162.700026 78.3809761,162.973952 C78.6529312,163.252705 79.2931085,163.162201 79.5614535,163.43854 C79.8334085,163.716086 79.8165618,164.272385 80.0861101,164.546311 C80.3592685,164.823857 80.8285714,164.897467 81.0981198,165.172599 C81.3700748,165.444112 81.1474568,166.221241 81.4242252,166.487926 C81.6985869,166.761852 82.5481455,166.426383 82.8285239,166.690656 C83.111309,166.957341 82.8814709,167.779119 83.1666627,168.031324 C83.4566679,168.293182 84.0908285,168.147169 84.385647,168.394547 C84.6828722,168.641925 85.0980248,168.715535 85.4012667,168.948432 C85.7081186,169.18495 85.9403634,169.492664 86.2544353,169.709874 C86.5612873,169.92467 86.7105015,170.389258 87.0354036,170.619742 C87.3410521,170.834539 87.5456201,171.213449 87.8657087,171.447553 C88.173764,171.66597 88.5552231,171.791469 88.8777184,172.021953 C89.1821636,172.246403 89.6767367,172.219855 89.9956221,172.453959 C90.302474,172.677203 90.4252147,173.162305 90.7380834,173.393996 C91.047342,173.619653 91.2338598,174.015458 91.5491351,174.249562 C91.859597,174.472805 92.219396,174.635713 92.5334679,174.867403 C92.8403198,175.095474 93.1363417,175.347679 93.4492103,175.580576 C93.7608756,175.809853 93.9690536,176.17549 94.2795155,176.40356 C94.5911808,176.631631 95.3589122,176.235826 95.6717809,176.465103 C95.9834461,176.693174 96.2241143,177.028642 96.5333729,177.254299 C96.8486482,177.48237 96.8438349,178.1521 97.1567035,178.378964 C97.4731821,178.607035 98.1602898,178.312594 98.4731584,178.540665 C98.793247,178.767529 98.7619602,179.481908 99.0760321,179.700325 C99.3961208,179.927188 99.7872066,180.045447 100.103685,180.266277 C100.426181,180.488314 100.712576,180.756206 101.029054,180.971003 C101.353956,181.190626 101.527237,181.633493 101.843716,181.843463 C102.169821,182.061879 102.758255,181.876044 103.075937,182.0836 C103.408059,182.298397 103.623457,182.684548 103.945953,182.88245 C104.282888,183.094833 104.52115,183.458057 104.844848,183.648719 C105.189004,183.851448 105.59092,183.940745 105.918228,184.121754 C106.2684,184.318449 106.525915,184.69012 106.854427,184.855441 C107.217836,185.038862 107.75934,184.826479 108.091462,184.968873 C108.459684,185.12454 108.906124,185.088338 109.245466,185.251245 C109.606468,185.427427 109.85556,185.800304 110.186478,185.980105 C110.542667,186.168354 110.667815,186.712586 110.987903,186.905661 C111.333262,187.115631 111.9951,186.783782 112.307968,186.992545 C112.642497,187.216995 112.677394,187.839664 112.977026,188.060494 C113.301928,188.303045 114.011899,188.025499 114.300701,188.258396 C114.617179,188.520255 114.868678,188.84607 115.141836,189.088621 C115.454705,189.363754 115.378894,190.028658 115.642426,190.276036 C115.951684,190.565649 116.609912,190.424462 116.86863,190.667013 C117.189922,190.961454 117.537688,191.089366 117.803626,191.289682 C118.047904,191.473104 118.292182,191.791678 118.718165,192.064397 C119.021407,192.261093 119.418509,192.373318 119.803578,192.609836 C120.12848,192.807738 120.366742,193.191476 120.742184,193.413513 C121.073103,193.611415 121.157337,194.276319 121.526762,194.492322 C121.862495,194.685397 122.555619,194.29442 122.921435,194.504389 C123.263183,194.699878 123.643439,194.855545 124.005645,195.060688 C124.129589,195.130678 124.219839,195.261004 124.304073,195.404604 C124.453287,195.668876 124.576028,195.986244 124.81068,196.11657 C125.156038,196.309645 125.675882,196.215521 126.038087,196.413423 C126.389463,196.608912 126.559134,197.13987 126.92134,197.340186 C127.275122,197.533261 127.60604,197.783053 127.969449,197.978542 C128.322028,198.171617 128.722741,198.282635 129.083743,198.482951 C129.442339,198.6712 129.924878,198.631378 130.287084,198.824454 C130.645679,199.015116 130.869501,199.467636 131.230503,199.658298 C131.550592,199.828446 131.940474,199.932224 132.30268,200.144607 C132.620362,200.332856 132.771983,200.830025 133.120952,201.049649 C133.436227,201.252378 133.922377,201.210143 134.261719,201.433386 C134.578197,201.640943 135.189495,201.4358 135.52282,201.66025 C135.836892,201.878667 135.931956,202.437379 136.260468,202.666656 C136.573337,202.885073 136.901849,203.102283 137.227954,203.332767 C137.540823,203.554804 137.72373,203.972329 138.045022,204.205227 C138.359094,204.433297 138.825991,204.455018 139.146079,204.687915 C139.456541,204.919606 139.995638,204.850823 140.315727,205.086134 C140.623782,205.317824 140.433654,206.232519 140.748929,206.470244 C141.059391,206.703141 141.881273,206.260274 142.196548,206.500412 C142.505807,206.736929 142.482943,207.419934 142.795812,207.657658 C143.105071,207.894176 143.251878,208.351523 143.561137,208.591661 C143.871599,208.831799 144.698294,208.403412 145.008756,208.64355 C145.319218,208.883688 145.319218,209.52687 145.627273,209.767008 C145.938938,210.010766 146.555049,209.862339 146.859494,210.102477 C147.169956,210.347441 147.394981,210.698597 147.701833,210.941148 C148.011091,211.186113 148.024328,211.803955 148.329977,212.041679 C148.642845,212.289057 149.031524,212.430243 149.337173,212.674001 C149.647635,212.921379 149.914777,213.22306 150.216815,213.463197 C150.52848,213.712989 151.161438,213.547668 151.462273,213.790219 C151.775142,214.04001 151.60547,214.882302 151.907509,215.12244 C152.220378,215.374645 152.855742,215.209324 153.15417,215.447048 C153.471852,215.701666 153.584966,216.190389 153.878581,216.4257 C154.197467,216.685145 154.415271,217.041128 154.70648,217.274025 C155.032585,217.535884 155.771436,217.236617 156.057832,217.464687 C156.39597,217.7362 156.477798,218.268364 156.750956,218.48316 C157.127602,218.782427 157.589685,218.822249 157.826743,218.999637 C158.143221,219.239775 158.127578,219.835896 158.345383,220.142403 C158.569204,220.456151 158.48497,220.86885 158.624558,221.230866 C158.679911,221.37688 158.833939,221.495138 159,221.610984 C158.642608,221.737689 158.191355,222.088846 157.947077,221.979034 L7,221.979034 L7,135.603085 L18.5845624,135.221761 Z" id="Fill-1" fill="url(#linearGradient-10)" mask="url(#mask-3)" transform="translate(83.000000, 178.500000) rotate(-14.000000) translate(-83.000000, -178.500000) "></path>
            <path d="M-35.8308978,214.483135 C-35.686235,213.909942 -36.1220431,213.244857 -35.9655525,212.745361 C-35.7844965,212.168529 -33.7100861,210.305199 -33.5117434,209.834818 C-33.2669993,209.253437 -32.912166,208.646581 -32.6401271,208.242617 C-32.2643677,207.683072 -31.7066424,206.661334 -31.2762932,206.477548 C-30.7322154,206.243722 -29.6467893,207.391017 -29.1591209,207.200862 C-28.6041251,206.984323 -28.2274558,206.418409 -27.7379678,206.25282 C-27.1665951,206.059027 -26.6470827,205.845217 -26.1521356,205.713292 C-25.5671155,205.556801 -24.9638988,205.77607 -24.4653124,205.694185 C-23.8648252,205.595924 -23.3553209,205.277484 -22.8467264,205.265656 C-22.2544277,205.252008 -21.7012516,205.267475 -21.1753703,205.333893 C-20.6221942,205.40395 -20.2264186,206.190952 -19.6750621,206.30741 C-19.1564595,206.417499 -18.5359561,206.145461 -17.9563949,206.258279 C-17.4505299,206.357451 -16.8509525,206.112707 -16.2541046,206.187313 C-15.7309529,206.25282 -15.1814161,206.180034 -14.6000353,206.215517 C-14.0696049,206.247361 -13.5200681,205.417597 -12.9395971,205.423056 C-12.4055274,205.428515 -11.8714577,206.174575 -11.2928064,206.155469 C-10.7569171,206.136362 -10.2219375,206.005347 -9.64601571,205.964405 C-9.10921653,205.925282 -8.59698274,205.618669 -8.02470022,205.558621 C-7.48881087,205.503121 -6.77459501,206.807816 -6.20504198,206.7323 C-5.67006245,206.662243 -5.15418934,206.251911 -4.58827563,206.162747 C-4.05238628,206.079953 -3.38912085,206.578539 -2.82593662,206.477548 C-2.29004727,206.381106 -1.86333741,205.572268 -1.30197284,205.459449 C-0.76790315,205.352999 -0.0254825877,206.123625 0.533152493,206.001708 C1.06631236,205.885249 1.37201494,204.677906 1.92610088,204.546891 C2.45744108,204.422244 3.20532062,205.117354 3.75667707,204.979969 C4.28710745,204.847134 4.87212757,204.835307 5.42257419,204.689734 C5.95118491,204.54962 6.48343494,204.33672 7.03024224,204.184779 C7.59160681,204.029198 7.66530297,202.273228 8.17025813,202.124016 C8.72980304,201.958427 9.66692704,203.141205 10.1664232,202.984714 C10.7250583,202.807297 10.9516058,201.712773 11.445643,201.545364 C11.9997289,201.35703 12.3500131,200.729248 12.8376815,200.551831 C13.3908576,200.352579 14.3771124,201.429816 14.863871,201.242391 C15.4061291,201.034041 15.289671,199.232579 15.7791591,199.039695 C16.3104993,198.830434 17.2048613,199.603789 17.7098165,199.413635 C18.2247797,199.218022 19.1355187,200.207916 19.6641294,200.029589 C20.1709042,199.860361 20.3901731,198.833164 20.9460786,198.677583 C21.450124,198.537469 21.9987509,198.529281 22.5710335,198.400085 C23.0778083,198.285447 23.4280925,197.224586 24.0094733,197.119046 C24.5207973,197.026243 25.2231853,197.861466 25.8063858,197.775033 C26.3231688,197.697697 26.918197,198.073457 27.4995778,198.00067 C28.0463851,197.932433 28.6032005,197.989752 29.1727536,197.928794 C29.7213805,197.869655 30.1362626,196.411199 30.7058156,196.358429 C31.2571721,196.306568 31.8676674,196.796966 32.4390401,196.750565 C32.9913064,196.705983 33.5144581,196.144619 34.084921,196.102767 C34.6380971,196.063644 35.1794454,195.652401 35.7499083,195.616008 C36.3039942,195.579615 36.9645302,197.126324 37.534993,197.092661 C38.0899888,197.060817 38.6204192,196.516739 39.1899722,196.486715 C39.7458778,196.45669 40.2863163,195.973571 40.8558693,195.945366 C41.4117749,195.917162 41.9785984,195.942637 42.5472416,195.915342 C43.1040571,195.888957 43.7263802,197.138152 44.2959332,197.110857 C44.8536585,197.085382 45.3622529,195.891686 45.9308961,195.865301 C46.4895312,195.839826 47.0745513,196.289282 47.6431945,196.264716 C48.2009198,196.237421 48.795948,196.892498 49.3636814,196.866113 C49.9214067,196.839728 50.4663943,196.410289 51.0341277,196.382084 C51.5927628,196.355699 52.0913491,194.999144 52.6581727,194.970939 C53.2177176,194.942735 53.8618766,196.507641 54.42961,196.478526 C54.988245,196.449412 55.5432408,196.19193 56.1109742,196.160086 C56.6705191,196.130062 57.2255148,195.908063 57.7932482,195.875309 C58.3546128,195.843465 58.9487312,196.283823 59.5173744,196.249249 C60.0778291,196.215585 60.5136373,194.101143 61.0822805,194.064749 C61.6436451,194.029266 62.2741566,195.047365 62.8427998,195.008242 C63.4014349,194.970939 63.9136687,194.214871 64.4804923,194.173929 C65.0382175,194.132987 65.5850248,193.915537 66.1509385,193.871866 C66.7186719,193.828194 67.3819373,194.995505 67.9296545,194.929997 C68.4946583,194.864489 68.9240977,193.927365 69.4672657,193.839112 C70.0277204,193.749949 70.5299461,193.539778 71.0685649,193.430599 C71.6244705,193.31687 72.1576304,193.26319 72.6926099,193.130355 C73.2430565,192.99479 74.140148,194.173929 74.6687587,194.021078 C75.2128366,193.863677 75.1955498,191.941208 75.7187016,191.768341 C76.2555007,191.591834 77.1771576,192.589007 77.6948504,192.399762 C78.2252808,192.205969 78.4254432,191.18787 78.9385868,190.983158 C79.4635582,190.772988 80.668172,192.222345 81.1767665,192.005806 C81.6962789,191.785628 81.9737768,190.992257 82.4796418,190.767529 C82.994605,190.538252 83.1465465,189.517424 83.649682,189.288147 C84.1619158,189.05432 85.2609894,190.117911 85.7641249,189.887724 C86.274539,189.654808 86.556586,188.942412 87.0597215,188.717684 C87.573775,188.488407 88.0650827,188.240933 88.5736772,188.025304 C89.0922798,187.806035 89.3825153,187.054516 89.8983884,186.853444 C90.42245,186.649642 90.9501509,186.455849 91.4760321,186.275702 C92.0055526,186.094646 92.6397035,186.262965 93.1755929,186.111023 C93.7133019,185.959082 94.3365349,186.275702 94.8833422,186.158334 C95.42742,186.040966 95.7176555,184.469692 96.2735611,184.391446 C96.822188,184.314111 97.4235851,183.981113 97.9876791,183.94654 C98.5381257,183.912876 99.1804651,184.032064 99.7481985,184.043892 C100.295916,184.054809 100.772666,185.640642 101.340399,185.697051 C101.902674,185.75346 102.464948,185.971819 103.019034,186.012762 C103.583128,186.054614 104.247303,184.37052 104.802299,184.398725 C105.366393,184.42602 105.906832,184.345955 106.460918,184.360512 C107.026831,184.374159 107.559991,186.208375 108.113167,186.209285 C108.679991,186.210195 109.221339,184.444216 109.773606,184.434208 C110.339519,184.42238 110.898154,184.897311 111.450421,184.874566 C112.017244,184.85091 112.607723,185.505077 113.15726,185.471413 C113.724993,185.43502 114.349136,186.152875 114.896853,186.108294 C115.465497,186.060983 116.027771,185.867189 116.573668,185.81078 C117.143221,185.75346 117.635439,185.046523 118.176787,184.981925 C118.74725,184.913688 119.190337,183.995671 119.728046,183.921974 C120.299419,183.844639 120.808013,183.546215 121.341173,183.46524 C121.917095,183.377897 122.419321,183.044899 122.947021,182.959375 C123.529312,182.863843 124.359076,184.446036 124.878589,184.357783 C125.473617,184.254972 125.945818,183.696337 126.450773,183.609903 C127.074006,183.503453 127.74728,184.26498 128.22312,184.196743 C128.618896,184.139424 129.054704,183.250521 129.727068,183.135882 C130.206548,183.053997 130.912575,183.858286 131.509423,183.751836 C132.011649,183.660853 132.560276,183.585338 133.133468,183.479797 C133.645702,183.385175 133.782176,181.116971 134.343541,181.011431 C134.863963,180.914079 135.695547,182.359798 136.250543,182.254258 C136.775514,182.154176 137.032996,180.59291 137.582533,180.48646 C138.111143,180.383649 139.017333,182.172373 139.56414,182.065923 C140.095481,181.962202 140.658665,181.965842 141.202743,181.858482 C141.735903,181.751122 142.22994,181.415395 142.771288,181.307126 C143.308087,181.199766 143.502791,179.397394 144.042319,179.288215 C144.580028,179.178125 145.070426,178.851497 145.606316,178.739588 C146.144025,178.629498 146.975608,179.955119 147.507859,179.84412 C148.048297,179.731301 148.356729,178.541245 148.88625,178.428426 C149.428508,178.312878 150.193674,179.270018 150.721375,179.156289 C151.266363,179.038922 151.97239,179.68854 152.495542,179.572991 C153.044169,179.451984 153.398092,178.509401 153.917605,178.392033 C154.469871,178.267386 154.879294,177.605941 155.392438,177.485843 C155.951983,177.354828 156.569757,177.586834 157.071982,177.464007 C157.645175,177.323894 158.403062,178.050847 158.889821,177.923471 C159.493038,177.76698 159.460284,175.624333 159.90701,175.490588 C160.431981,175.333188 161.257196,176.060141 161.811282,175.963699 C162.345352,175.871806 163.008617,177.049125 163.575441,177.009093 C164.11406,176.97179 164.597179,176.006461 165.169461,176.01192 C165.70808,176.015559 166.253068,176.122009 166.82535,176.162952 C167.364879,176.201164 167.823433,177.017281 168.394806,177.085518 C168.930695,177.147387 169.539371,176.632423 170.108014,176.718857 C170.641174,176.799832 171.043318,177.665989 171.607412,177.766071 C172.140572,177.860693 172.988533,176.325811 173.550807,176.4359 C174.083967,176.539621 174.28413,178.341083 174.844584,178.458451 C175.377744,178.56945 175.966404,178.440254 176.524129,178.562171 C177.056379,178.677719 177.593178,178.810554 178.149084,178.934291 C178.680424,179.052569 179.319124,178.737768 179.87321,178.862415 C180.40546,178.982512 181.126954,178.314698 181.68104,178.441164 C182.2142,178.562171 182.504436,179.808637 183.058522,179.933284 C183.592591,180.054291 184.273143,179.575721 184.827229,179.699457 C185.362209,179.818645 185.759804,180.608377 186.31389,180.730294 C186.84887,180.848572 187.345636,181.205225 187.899722,181.326232 C188.490201,181.453608 189.238991,180.758499 189.783069,180.864949 C190.377187,180.981407 191.148722,179.930554 191.69007,180.023357 C192.290558,180.125257 192.86284,179.981504 193.405098,180.055201 C194.011045,180.137995 194.440484,181.208864 194.980922,181.257085 C195.595057,181.312584 196.182807,180.667516 196.723245,180.682073 C197.341929,180.69936 197.886917,181.360805 198.422806,181.328961 C199.04058,181.291658 199.409971,180.205322 199.939491,180.10979 C200.540888,179.999701 201.54443,181.703811 202.065762,181.525485 C202.624397,181.33624 203.357719,181.298027 203.867223,181.043275 C204.376728,180.789433 204.387646,179.547516 204.893511,179.240904 C205.368441,178.952488 205.435769,177.989889 205.945273,177.665989 C206.409286,177.372115 206.776857,176.833496 207.299099,176.518695 C207.767661,176.236648 208.8358,176.895364 209.373509,176.601489 C209.881194,176.324901 209.765646,175.082075 210.22238,174.798208 C210.711868,174.494325 211.514337,174.780921 211.958334,174.46976 C212.424166,174.141311 213.140202,174.192262 213.571461,173.855625 C214.014548,173.50807 214.153751,172.809322 214.575912,172.452669 C215.001712,172.092376 216.18358,172.610069 216.604831,172.240678 C217.019713,171.877657 216.705822,170.674862 217.134352,170.301832 C217.544685,169.94245 218.698348,170.436487 219.135066,170.068916 C219.550858,169.718632 219.470793,168.757852 219.922978,168.401199 C220.346958,168.064563 220.225951,166.952751 220.693603,166.609746 C221.128501,166.291306 221.816332,166.248544 222.296722,165.923735 C222.742538,165.621671 223.889833,166.364092 224.38296,166.05748 C224.839694,165.773613 225.307347,165.510672 225.809572,165.221347 C226.277224,164.952947 226.218086,163.697383 226.72941,163.424434 C227.228906,163.157854 227.836672,163.015921 228.360733,162.80848 C228.882975,162.602858 229.328791,161.966888 229.875599,161.814037 C230.414217,161.663915 230.98559,161.249033 231.545135,161.146222 C232.094672,161.044321 232.827084,161.817676 233.393908,161.756717 C233.950723,161.696669 234.50117,161.061608 235.071633,161.036133 C235.629358,161.011567 236.231665,161.451925 236.803947,161.454654 C237.362582,161.458293 237.872997,162.990446 238.443459,163.016831 C239.001185,163.041396 239.689925,160.957887 240.258569,161.000649 C240.816294,161.043411 241.268479,162.427261 241.837122,162.484581 C242.393938,162.53917 242.877967,163.23155 243.44388,163.297058 C244.000696,163.361656 244.683977,162.376311 245.248981,162.447278 C245.808526,162.517335 246.340776,162.821217 246.90669,162.895823 C247.466235,162.96861 248.202287,161.710316 248.766381,161.784012 C249.326835,161.856799 249.718062,163.255206 250.283066,163.325263 C250.841701,163.396229 251.453106,163.046855 252.01538,163.110543 C252.576745,163.175141 253.167224,162.907651 253.730408,162.964061 C254.292683,163.02047 254.792179,163.725588 255.355363,163.771079 C255.918547,163.815661 256.479912,163.944856 257.044006,163.9767 C257.60901,164.007635 258.19676,163.370754 258.760854,163.386221 C259.326767,163.400779 259.886312,164.920193 260.451316,164.916554 C261.01723,164.912005 261.585873,164.127732 262.149057,164.101347 C262.780479,164.071323 263.378236,164.690006 263.926863,164.678179 C264.568293,164.662712 265.128748,164.276034 265.667366,164.283313 C266.325173,164.290591 266.877439,164.35428 267.397861,164.389763 C268.084782,164.436164 268.648876,164.233272 269.137455,164.318796 C269.870777,164.448902 270.689623,163.829308 271.106325,164.020372 C271.785057,164.329714 271.857844,165.267748 272.232693,165.623491 C272.602994,165.976505 272.953278,166.503296 273.664764,166.763507 C274.096933,166.920907 274.730174,166.878145 275.473505,166.96094 C276.033959,167.022808 276.607152,167.024628 277.171246,166.980956 C277.723512,166.939104 278.086534,165.943751 278.647899,165.820014 C279.182878,165.700827 279.887086,166.310412 280.437532,166.132086 C280.959774,165.964677 281.215436,165.070315 281.755875,164.863784 C282.269928,164.666351 282.783072,164.484385 283.318051,164.264206 C283.830285,164.053126 284.947555,165.281395 285.480715,165.060307 C285.992039,164.848317 286.440585,164.483475 286.974655,164.271485 C287.489618,164.067683 287.962729,163.76835 288.503168,163.572736 C289.025409,163.382582 289.389341,162.727505 289.937968,162.554638 C290.467489,162.385409 290.820502,161.503785 291.377318,161.356393 C291.914117,161.215369 292.735693,162.200714 293.298877,162.085166 C293.842045,161.974167 294.427975,162.252574 294.997528,162.17069 C295.648056,162.077887 296.192133,161.974167 296.657966,161.909569 C297.413124,161.804938 297.942645,162.101543 298.320224,162.068789 C299.609452,161.95688 298.3921,161.37004 298.614099,162.038764 C298.720549,162.359934 299.573968,162.59376 300.315479,163.078699 C300.68396,163.320714 301.333578,163.220632 301.965909,163.502679 C302.410815,163.699203 303.115023,163.301607 303.71915,163.517237 C304.255949,163.708301 304.698126,163.971241 305.20672,164.125003 C305.751708,164.290591 306.16659,164.691826 306.681553,164.817383 C307.23382,164.952037 307.55317,166.067488 308.075412,166.1612 C308.634047,166.260372 309.315509,165.31142 309.844119,165.368739 C310.404574,165.429698 310.857669,166.811728 311.390829,166.829925 C311.952193,166.849941 312.539033,166.488739 313.074923,166.469632 C313.633558,166.449616 314.146701,165.859137 314.68441,165.803637 C315.234857,165.748138 315.960901,166.899981 316.49861,166.815367 C317.042687,166.729843 317.557651,166.311322 318.09627,166.204872 C318.633069,166.099332 318.825043,164.327894 319.362752,164.210527 C319.895912,164.095888 320.793913,165.641688 321.335261,165.52341 C321.865692,165.408771 322.150468,164.091339 322.697275,163.982159 C323.210419,163.879349 323.840931,163.879349 324.408664,163.866611 C324.935455,163.855693 325.486811,164.345181 326.049086,164.40341 C326.575877,164.45891 326.891588,165.657155 327.442034,165.767244 C327.967006,165.871874 328.803139,164.584466 329.340848,164.733678 C329.85945,164.878341 330.398979,165.038471 330.92486,165.219527 C331.435274,165.394214 331.581757,166.539689 332.093991,166.744401 C332.598036,166.946383 333.264031,166.725294 333.763527,166.951842 C334.260294,167.177479 334.732495,167.429502 335.219254,167.676066 C335.708742,167.923539 336.069944,168.375724 336.543055,168.640484 C337.026174,168.908884 338.083396,168.18557 338.543769,168.466707 C339.015971,168.756033 338.985036,169.831451 339.428123,170.128965 C339.893046,170.441946 339.959463,171.244415 340.383444,171.560126 C340.838358,171.899492 342.561575,170.624822 342.95917,170.961459 C343.400437,171.335398 342.287716,173.357039 342.648008,173.717331 C343.026497,174.09673 343.91904,174.154049 344.400339,174.46885 C344.850705,174.762725 345.418438,175.049321 345.937041,175.292245 C346.430168,175.523342 347.417333,174.565292 347.951402,174.753626 C348.470005,174.937412 348.854863,175.449646 349.393481,175.597038 C349.930281,175.74352 350.327876,176.473203 350.867405,176.587842 C351.419671,176.70521 351.946462,177.019101 352.485081,177.108264 C353.050085,177.200157 353.76703,176.112911 354.296551,176.178419 C354.879751,176.251205 355.414731,176.263943 355.930604,176.309434 C356.552017,176.364934 357.098824,176.204804 357.575575,176.229369 C358.600952,176.284869 358.085079,176.682464 358.341651,177.472196 C358.604591,178.279214 358.562739,178.165486 358.708312,178.965225 C358.860253,179.800448 359.781001,179.775883 359.740968,180.622934 L359.742235,292.170714 L-35.3086559,292.170714 L-35.8308978,214.483135 Z" id="Fill-1" fill="url(#linearGradient-11)" mask="url(#mask-3)"></path>
            <path d="M283.794836,300.629776 C283.043708,300.33999 282.438634,299.579589 281.648095,299.294439 C280.834374,298.990742 279.566267,300.059476 278.842959,299.788236 C278.022283,299.479902 277.897095,297.537172 277.180742,297.252022 C276.357748,296.934415 275.040957,298.084289 274.331559,297.799139 C273.508565,297.469941 272.581247,297.569628 271.878804,297.275205 C271.074356,296.929779 270.070534,297.175518 269.361136,296.862548 C268.582189,296.519441 268.438455,294.866497 267.710511,294.534981 C266.968657,294.201147 266.560637,293.153278 265.800237,292.800897 C265.08852,292.478654 264.049924,292.791624 263.250113,292.439243 C262.552306,292.13091 261.733949,291.95472 260.915591,291.609294 C260.215466,291.310234 259.401745,291.13868 258.57875,290.809482 C257.869352,290.519696 257.048676,290.359733 256.225682,290.035172 C255.511647,289.754659 254.980758,288.852842 254.169355,288.535236 C253.348679,288.215311 251.943792,289.295636 251.204257,288.943256 C250.413718,288.563055 249.365849,288.521326 248.663406,288.101715 C247.905324,287.661239 247.432392,286.657418 246.764723,286.189122 C246.041416,285.688371 246.006641,284.306667 245.376065,283.785051 C244.701442,283.224024 243.741668,283.029287 243.148184,282.472897 C242.506017,281.87014 242.807395,280.391068 242.246368,279.802222 C241.629702,279.162373 239.951257,279.602848 239.394866,279.014002 C238.782837,278.362561 237.969115,278.031045 237.39186,277.479291 C236.742738,276.853352 236.274442,276.301598 235.609092,275.851849 C234.885784,275.36037 234.271436,275.404418 233.460033,275.181862 C232.688041,274.970897 232.043555,272.88675 231.125511,272.9818 C230.274697,273.062941 229.574572,273.09076 228.682029,273.014257 C227.831215,272.947026 226.896942,273.725973 226.018309,273.533554 C225.183723,273.352727 224.474325,272.687377 223.625829,272.420773 C222.802835,272.163443 221.812923,272.374407 220.982974,272.054483 C220.176208,271.736876 218.887236,272.457866 218.085106,272.089257 C217.595946,271.873656 217.155471,271.51432 216.710358,271.175849 C216.427526,270.962566 216.144694,270.75392 215.840998,270.605549 C215.055096,270.216075 213.93536,270.401539 213.165686,269.998156 C212.384421,269.580863 212.632479,267.257932 211.879033,266.847594 C211.09545,266.411755 209.644197,267.209248 208.902343,266.787318 C208.111805,266.344524 207.685239,265.324475 206.952658,264.918773 C206.767194,264.81445 206.611869,264.587257 206.449588,264.316017 C206.115754,263.759626 205.779601,262.999226 205.158298,262.739577 C204.458173,262.445154 202.921144,264.04014 202.063376,263.72717 C201.328476,263.45593 200.908865,262.141457 200.074279,261.85167 C199.316197,261.589703 198.785308,260.525606 197.964632,260.245092 C197.19264,259.983125 195.648656,261.939765 194.832616,261.666207 C194.053669,261.404239 193.471778,260.490832 192.655738,260.217273 C191.872155,259.959942 191.413132,258.677926 190.611003,258.411322 C190.597093,258.406685 190.590138,258.397412 190.576228,258.397412 C189.804236,258.121535 189.208435,257.293904 188.41326,257.020345 C187.627358,256.758378 186.83682,256.477864 186.039327,256.206624 C185.244152,255.935384 183.911132,257.242901 183.115958,256.967024 C182.323101,256.691147 181.676297,255.988704 180.888077,255.703554 C180.092902,255.423041 179.230497,255.337264 178.45155,255.047477 C177.656375,254.748417 176.810198,254.59541 176.042842,254.291713 C175.245349,253.98338 174.51045,253.526676 173.752368,253.213706 C172.959511,252.886827 172.627995,251.532943 171.883822,251.203745 C171.090966,250.853683 169.581756,252.077742 168.858449,251.723043 C168.065592,251.33357 167.917221,249.784949 167.231006,249.390839 C166.440468,248.948045 164.757386,249.917092 164.136083,249.474298 C163.359455,248.924862 163.285269,247.44579 162.805383,246.905628 C162.258265,246.29128 162.93057,244.357823 162.311586,243.799114 C161.699556,243.251996 160.721236,242.925117 160.044294,242.435957 C159.381262,241.95607 157.253068,243.704064 156.534397,243.279816 C155.834272,242.857886 156.003508,240.910519 155.250062,240.539592 C154.515163,240.177938 153.58089,240.217349 152.801943,239.897425 C152.048498,239.584455 151.584839,238.420671 150.791982,238.144794 C150.01999,237.868917 148.605831,239.579818 147.799065,239.341034 C147.015481,239.109205 146.551822,237.787777 145.733465,237.579131 C144.93829,237.379757 143.939105,238.103065 143.11611,237.926875 C142.313981,237.750684 141.606901,237.185021 140.77927,237.029695 C139.974822,236.876687 139.195875,236.582264 138.368244,236.450121 C137.556841,236.324933 136.780213,235.944733 135.950263,235.8265 C135.136542,235.71754 134.234726,236.324933 133.402458,236.225247 C132.486732,236.120924 131.802835,234.711401 131.000705,234.57694 C130.094252,234.421614 129.435857,233.603256 128.649955,233.408519 C127.755093,233.181327 126.49626,234.477253 125.726586,234.206013 C124.866499,233.902316 124.270697,233.042229 123.528843,232.671302 C122.73135,232.286465 122.62239,230.858396 121.899082,230.406328 C121.175775,229.944988 119.858984,230.434148 119.144949,229.912532 C118.470325,229.418735 118.303408,228.220177 117.587055,227.670741 C116.933296,227.172308 114.93029,228.396367 114.200028,227.851568 C113.541632,227.36009 113.77578,225.59355 113.024652,225.067297 C112.352347,224.596683 110.959052,225.132209 110.191697,224.633776 C109.503164,224.184027 109.185557,223.103702 108.399656,222.628452 C107.627664,222.160156 106.955358,221.559718 106.146274,221.237475 C105.318643,220.910596 104.653292,219.825634 103.795523,219.630897 C102.926163,219.440797 101.903795,219.642489 101.022844,219.570622 C100.139574,219.503391 99.2053011,219.737539 98.3127578,219.765358 C97.4341244,219.797814 96.5253531,219.855772 95.6444013,219.969368 C94.7727227,220.082965 93.9891393,220.796999 93.1220973,220.980144 C92.2504187,221.156335 91.126046,220.282338 90.2729138,220.502576 C89.40819,220.725132 88.9700324,222.459216 88.1354466,222.704955 C87.2707228,222.966923 86.491776,223.379579 85.6664633,223.646183 C84.8017396,223.92206 83.6727303,223.314667 82.865964,223.583589 C81.9873305,223.873376 81.266341,224.557272 80.4642112,224.796057 C79.5577582,225.071934 78.3545636,223.859466 77.5570704,224.035656 C76.5903417,224.248939 75.9528108,225.47068 75.1808189,225.47068 C74.3578245,225.47068 73.8385266,224.093613 72.9575748,223.859466 C72.1623999,223.646183 70.9870248,224.659277 70.1547572,224.30226 C69.3874018,223.973062 69.2923518,222.287662 68.5018135,221.861096 C67.7506862,221.469305 67.0204235,221.109969 66.260023,220.667175 C65.7036324,220.340295 65.1147857,220.069055 64.5352122,219.774632 C64.3427938,219.674945 64.1526936,219.579895 63.9649118,219.470935 C63.2230577,219.023504 62.3073315,218.85195 61.5677957,218.406838 C60.8143501,217.959407 60.1721826,217.280147 59.4256919,216.862854 C58.6560182,216.429333 56.7503804,218.198191 55.9853434,217.822628 C55.1855319,217.433154 54.7705572,216.438606 53.9869738,216.139546 C53.1431148,215.82194 52.8185536,213.517556 52.0048323,213.350638 C51.3139807,213.213859 50.110786,214.820437 49.1139195,214.658156 C48.337291,214.539923 47.4285197,214.73466 46.4988837,214.604836 C45.6874808,214.491239 44.688296,215.45565 43.781843,215.337417 C42.9588486,215.228457 42.1173078,215.056903 41.2247646,214.947943 C40.3901787,214.848256 39.8940637,211.665239 39.0084754,211.565552 C38.1646163,211.465865 37.2581633,211.683785 36.3795298,211.588735 C35.5287159,211.493685 34.5295311,212.657468 33.6601708,212.562418 C32.8024019,212.476642 32.0327283,211.389362 31.1656863,211.303585 C30.3055992,211.227081 29.3968278,211.528459 28.5367407,211.451956 C27.6696987,211.370815 26.8977068,210.216305 26.0376196,210.144438 C25.165941,210.070252 24.2896259,210.003022 23.4341753,209.935791 C22.5601784,209.873197 21.6699535,209.984475 20.8168212,209.926518 C19.9381877,209.863924 18.9320481,212.001391 18.088189,211.950389 C17.1956458,211.901705 16.4051075,210.353084 15.5705216,210.315991 C15.3618751,210.309037 15.1555469,210.378585 14.9492188,210.471317 L32.0883674,302.493685 L287.949219,302.493685 C287.327916,302.213171 286.718205,301.883973 286.064446,301.626643 C285.313318,301.332219 284.580737,300.9242 283.794836,300.629776" id="Fill-1" fill="url(#linearGradient-12)" mask="url(#mask-3)" transform="translate(151.449219, 256.204850) rotate(-8.000000) translate(-151.449219, -256.204850) "></path>
            <g id="High-Country-Angular-Copy" mask="url(#mask-3)">
                <use fill="black" fill-opacity="1" filter="url(#filter-14)" xlink:href="#path-13"></use>
                <use fill="#FFFFFF" fill-rule="evenodd" xlink:href="#path-13"></use>
                <use fill="#FFFFFF" fill-rule="evenodd" xlink:href="#path-13"></use>
            </g>
        </g>
    </g>
</svg>