<svg xmlns="http://www.w3.org/2000/svg" width="400" height="401" viewBox="0 0 400 401" xmlns:xlink="http://www.w3.org/1999/xlink">
  <defs>
    <rect id="a" width="400" height="400"/>
    <polygon id="b" points="199.722 50 199.722 50 199.722 50 60.237 99.741 81.512 284.173 199.722 349.645 199.722 349.645 199.722 349.645 317.932 284.173 339.207 99.741"/>
    <path id="e" d="M200.634483,85 L113,281.5 L113,281.5 L145.674713,281.5 L145.674713,281.5 L163.291954,237.532184 L237.675862,237.532184 L255.293103,281.5 L255.293103,281.5 L287.967816,281.5 L287.967816,281.5 L200.634483,85 L200.634483,85 L200.634483,85 L200.634483,85 L200.634483,85 Z M226.232184,210.428736 L175.036782,210.428736 L200.634483,148.843678 L226.232184,210.428736 Z"/>
    <filter id="d" width="200%" height="200%" x="-50%" y="-50%" filterUnits="objectBoundingBox">
      <feOffset dx="1" dy="1" in="SourceAlpha" result="shadowOffsetOuter1"/>
      <feGaussianBlur stdDeviation="5.5" in="shadowOffsetOuter1" result="shadowBlurOuter1"/>
      <feColorMatrix values="0 0 0 0 0.764705882 0 0 0 0 0 0 0 0 0 0.184313725 0 0 0 1 0" in="shadowBlurOuter1"/>
    </filter>
  </defs>
  <g fill="none" fill-rule="evenodd" transform="translate(0 .5)">
    <mask id="c" fill="white">
      <use xlink:href="#b"/>
    </mask>
    <use fill="#DD0031" fill-rule="nonzero" xlink:href="#b"/>
    <polygon fill="#C3002F" fill-rule="nonzero" points="199.444 83.3 199.444 235.1 199.444 350 317.794 284.45 339.094 99.8 199.444 50" mask="url(#c)"/>
    <path fill="#EE8098" d="M150.780283,142.153207 C141.849919,142.153207 125.37325,142.698383 109.490833,147.534141 C90.3417949,153.364497 68.087756,165.167396 61.6897975,170.023069 C55.632883,174.61991 32.373073,170.71699 30.8761062,178.902817 C25.7723003,206.811833 65.4291408,257.507203 65.4291408,257.507203 L143.976595,260.837698 L230.300832,264.497936 C230.300832,264.497936 343.492791,269.440978 382.704336,270.530374 C421.91588,271.619769 481.388889,117.420213 481.388889,117.420213 C481.388889,117.420213 443.462866,143.573832 397.765515,156.920614 C385.680192,160.450363 313.92383,174.659428 305.848401,174.659428 C279.85109,174.659428 248.492752,167.410162 235.217175,163.628685 C194.61048,152.062088 169.74551,142.153207 150.780283,142.153207 Z" mask="url(#c)"/>
    <path fill="#F199AC" d="M249.186663,177.349291 C242.804373,177.349291 182.790113,185.39328 171.264755,193.52301 C159.739397,201.652739 159.165835,198.877066 158.095993,204.727255 C154.448441,224.673075 182.790113,260.903686 182.790113,260.903686 L238.925856,263.283901 L300.619456,265.899774 C300.619456,265.899774 381.514691,269.432433 409.538122,270.210994 C437.561554,270.989556 400.205327,237.943359 400.205327,237.943359 C400.205327,237.943359 343.272601,192.183323 335.123148,189.017169 C309.391322,179.020065 262.740598,177.349291 249.186663,177.349291 Z" mask="url(#c)"/>
    <path fill="#F4B3C1" d="M66.1324177,182.08582 C36.9536586,187.489012 7.68439325,198.470746 -5.24463313,208.283114 C-34.7463471,230.673174 -24.9497197,312.162238 -24.9497197,312.162238 L157.170973,319.884347 C157.170973,319.884347 282.205162,325.344534 325.519048,326.547903 C348.323777,327.181476 354.602968,313.975098 355.436484,301.326589 C356.186097,289.951305 352.5312,279.027231 352.5312,279.027231 C352.5312,279.027231 285.34412,261.879436 230.116816,230.1015 C220.61607,224.634746 210.287512,218.978319 198.508714,212.345979 C178.04477,200.823255 157.170973,188.985456 157.170973,188.985456 C157.170973,188.985456 133.343227,180.558413 111.277057,178.110533 C89.2108866,175.662653 79.0470294,179.69435 66.1324177,182.08582 Z" mask="url(#c)"/>
    <path fill="#F8CCD5" d="M117.567321,311.560172 C84.1252158,311.560172 -33.7163046,260.020168 -53.588025,275.101631 C-98.9317186,309.514819 -174.834515,346.952148 -174.834515,346.952148 L105.082269,358.820914 C105.082269,358.820914 297.257949,367.21314 363.830745,369.0627 C430.403542,370.91226 405.348019,296.024136 405.348019,296.024136 C405.348019,296.024136 458.803085,262.520228 363.830745,226.249022 C361.81266,225.478289 350.123539,214.88976 348.122772,214.272392 C328.108589,208.096698 265.272501,214.292872 245.611275,226.249022 C225.950049,238.205173 204.488149,260.89013 186.466425,275.101631 C147.772003,305.615129 140.949771,311.560172 117.567321,311.560172 Z" mask="url(#c)"/>
    <path fill="#FBE6EA" d="M125.571245,247.765957 C100.339736,247.765957 53.5949628,255.758373 38.6020822,267.137084 C4.39102407,293.101259 15.7514823,387.598382 15.7514823,387.598382 L226.944013,396.553168 C226.944013,396.553168 371.937348,402.884962 422.165409,404.280424 C472.39347,405.675886 453.489497,349.17405 453.489497,349.17405 C453.489497,349.17405 331.168334,330.035233 259.513293,302.669215 C187.858252,275.303198 159.320302,247.765957 125.571245,247.765957 Z" mask="url(#c)"/>
    <g fill-rule="nonzero" mask="url(#c)">
      <use fill="black" filter="url(#d)" xlink:href="#e"/>
      <use fill="#FFFFFF" fill-rule="evenodd" xlink:href="#e"/>
    </g>
  </g>
</svg>
