<?xml version="1.0" encoding="UTF-8"?>
<svg width="400px" height="401px" viewBox="0 0 400 401" version="1.1" xmlns="http://www.w3.org/2000/svg" xmlns:xlink="http://www.w3.org/1999/xlink">
    <!-- Generator: Sketch 50.2 (55047) - http://www.bohemiancoding.com/sketch -->
    <title>export-slice-400-400</title>
    <desc>Created with Sketch.</desc>
    <defs>
        <rect id="path-1" x="0" y="0" width="400" height="400"></rect>
        <polygon id="path-3" points="199.722222 50 199.722222 50 199.722222 50 60.2372931 99.7411348 81.5121158 284.172872 199.722222 349.64539 199.722222 349.64539 199.722222 349.64539 317.932329 284.172872 339.207151 99.7411348"></polygon>
        <filter x="-7.9%" y="-6.7%" width="115.8%" height="114.7%" filterUnits="objectBoundingBox" id="filter-5">
            <feMorphology radius="3" operator="dilate" in="SourceAlpha" result="shadowSpreadOuter1"></feMorphology>
            <feOffset dx="0" dy="2" in="shadowSpreadOuter1" result="shadowOffsetOuter1"></feOffset>
            <feGaussianBlur stdDeviation="6" in="shadowOffsetOuter1" result="shadowBlurOuter1"></feGaussianBlur>
            <feComposite in="shadowBlurOuter1" in2="SourceAlpha" operator="out" result="shadowBlurOuter1"></feComposite>
            <feColorMatrix values="0 0 0 0 0   0 0 0 0 0   0 0 0 0 0  0 0 0 0.2 0" type="matrix" in="shadowBlurOuter1"></feColorMatrix>
        </filter>
        <path d="M199.635112,69 L121,246 L121,246 L150.319277,246 L150.319277,246 L166.127367,206.395402 L232.872633,206.395402 L248.680723,246 L248.680723,246 L278,246 L278,246 L199.635112,69 L199.635112,69 L199.635112,69 L199.635112,69 L199.635112,69 Z M222.604131,181.981609 L176.666093,181.981609 L199.635112,126.508046 L222.604131,181.981609 Z" id="path-6"></path>
        <filter x="-9.2%" y="-8.2%" width="119.7%" height="117.5%" filterUnits="objectBoundingBox" id="filter-7">
            <feOffset dx="1" dy="1" in="SourceAlpha" result="shadowOffsetOuter1"></feOffset>
            <feGaussianBlur stdDeviation="5" in="shadowOffsetOuter1" result="shadowBlurOuter1"></feGaussianBlur>
            <feColorMatrix values="0 0 0 0 0.764705882   0 0 0 0 0   0 0 0 0 0.184313725  0 0 0 0.75 0" type="matrix" in="shadowBlurOuter1"></feColorMatrix>
        </filter>
        <path d="M91.182,261.424 L93.954,261.424 L93.954,267.716 L101.236,267.716 L101.236,261.424 L104.008,261.424 L104.008,277 L101.236,277 L101.236,270.092 L93.954,270.092 L93.954,277 L91.182,277 L91.182,261.424 Z M107.352,266.44 L109.992,266.44 L109.992,277 L107.352,277 L107.352,266.44 Z M106.978,262.854 C106.978,262.428665 107.135665,262.058335 107.451,261.743 C107.766335,261.427665 108.165998,261.27 108.65,261.27 C109.134002,261.27 109.540998,261.420332 109.871,261.721 C110.201002,262.021668 110.366,262.399331 110.366,262.854 C110.366,263.308669 110.201002,263.686332 109.871,263.987 C109.540998,264.287668 109.134002,264.438 108.65,264.438 C108.165998,264.438 107.766335,264.280335 107.451,263.965 C107.135665,263.649665 106.978,263.279335 106.978,262.854 Z M123.94,266.44 L123.94,276.054 C123.94,277.007338 123.822668,277.868996 123.588,278.639 C123.353332,279.409004 122.990336,280.061664 122.499,280.597 C122.007664,281.132336 121.388004,281.546665 120.64,281.84 C119.891996,282.133335 119.004672,282.28 117.978,282.28 C117.552665,282.28 117.101669,282.243334 116.625,282.17 C116.148331,282.096666 115.679002,281.986667 115.217,281.84 C114.754998,281.693333 114.311335,281.510001 113.886,281.29 C113.460665,281.069999 113.079335,280.820668 112.742,280.542 L114.26,278.496 C114.773336,278.980002 115.352663,279.350332 115.998,279.607 C116.643337,279.863668 117.295997,279.992 117.956,279.992 C118.58667,279.992 119.118331,279.900334 119.551,279.717 C119.983669,279.533666 120.328332,279.280668 120.585,278.958 C120.841668,278.635332 121.024999,278.254002 121.135,277.814 C121.245001,277.373998 121.3,276.890003 121.3,276.362 L121.3,275.592 L121.256,275.592 C120.874665,276.105336 120.387003,276.497665 119.793,276.769 C119.198997,277.040335 118.535337,277.176 117.802,277.176 C117.009996,277.176 116.291337,277.029335 115.646,276.736 C115.000663,276.442665 114.454336,276.046669 114.007,275.548 C113.559664,275.049331 113.211335,274.466337 112.962,273.799 C112.712665,273.131663 112.588,272.424004 112.588,271.676 C112.588,270.91333 112.708999,270.19467 112.951,269.52 C113.193001,268.84533 113.537664,268.258669 113.985,267.76 C114.432336,267.261331 114.974997,266.865335 115.613,266.572 C116.251003,266.278665 116.965996,266.132 117.758,266.132 C118.506004,266.132 119.202663,266.285998 119.848,266.594 C120.493337,266.902002 121.006665,267.378663 121.388,268.024 L121.432,268.024 L121.432,266.44 L123.94,266.44 Z M118.308,268.288 C117.823998,268.288 117.395002,268.375999 117.021,268.552 C116.646998,268.728001 116.331668,268.966332 116.075,269.267 C115.818332,269.567668 115.620334,269.923331 115.481,270.334 C115.341666,270.744669 115.272,271.184664 115.272,271.654 C115.272,272.079335 115.341666,272.489998 115.481,272.886 C115.620334,273.282002 115.818332,273.637665 116.075,273.953 C116.331668,274.268335 116.646998,274.521332 117.021,274.712 C117.395002,274.902668 117.816664,274.998 118.286,274.998 C118.770002,274.998 119.206331,274.906334 119.595,274.723 C119.983669,274.539666 120.313665,274.294002 120.585,273.986 C120.856335,273.677998 121.065333,273.322335 121.212,272.919 C121.358667,272.515665 121.432,272.094002 121.432,271.654 C121.432,271.199331 121.358667,270.766669 121.212,270.356 C121.065333,269.945331 120.856335,269.586002 120.585,269.278 C120.313665,268.969998 119.987335,268.728001 119.606,268.552 C119.224665,268.375999 118.792002,268.288 118.308,268.288 Z M132.982,266.132 C133.671337,266.132 134.261664,266.252999 134.753,266.495 C135.244336,266.737001 135.647665,267.055998 135.963,267.452 C136.278335,267.848002 136.509333,268.302664 136.656,268.816 C136.802667,269.329336 136.876,269.857331 136.876,270.4 L136.876,277 L134.236,277 L134.236,271.192 C134.236,270.883998 134.214,270.565002 134.17,270.235 C134.126,269.904998 134.034334,269.604335 133.895,269.333 C133.755666,269.061665 133.557668,268.838001 133.301,268.662 C133.044332,268.485999 132.703335,268.398 132.278,268.398 C131.852665,268.398 131.486002,268.478666 131.178,268.64 C130.869998,268.801334 130.613334,269.017665 130.408,269.289 C130.202666,269.560335 130.048667,269.864665 129.946,270.202 C129.843333,270.539335 129.792,270.883998 129.792,271.236 L129.792,277 L127.152,277 L127.152,260.368 L129.792,260.368 L129.792,267.914 L129.836,267.914 C129.938667,267.693999 130.088999,267.477668 130.287,267.265 C130.485001,267.052332 130.715999,266.861668 130.98,266.693 C131.244001,266.524332 131.544665,266.388667 131.882,266.286 C132.219335,266.183333 132.585998,266.132 132.982,266.132 Z M156.83,265.076 C156.419331,264.518664 155.884003,264.111668 155.224,263.855 C154.563997,263.598332 153.91867,263.47 153.288,263.47 C152.481329,263.47 151.748003,263.616665 151.088,263.91 C150.427997,264.203335 149.859669,264.606664 149.383,265.12 C148.906331,265.633336 148.539668,266.234663 148.283,266.924 C148.026332,267.613337 147.898,268.361329 147.898,269.168 C147.898,270.018671 148.022665,270.795996 148.272,271.5 C148.521335,272.204004 148.876998,272.808997 149.339,273.315 C149.801002,273.821003 150.354663,274.213332 151,274.492 C151.645337,274.770668 152.371329,274.91 153.178,274.91 C154.014004,274.91 154.754663,274.745002 155.4,274.415 C156.045337,274.084998 156.565998,273.648669 156.962,273.106 L159.184,274.668 C158.494663,275.533338 157.651338,276.204331 156.654,276.681 C155.656662,277.157669 154.490673,277.396 153.156,277.396 C151.938661,277.396 150.820338,277.194335 149.801,276.791 C148.781662,276.387665 147.905337,275.823004 147.172,275.097 C146.438663,274.370996 145.866669,273.505672 145.456,272.501 C145.045331,271.496328 144.84,270.385339 144.84,269.168 C144.84,267.921327 145.056331,266.795672 145.489,265.791 C145.921669,264.786328 146.515663,263.932004 147.271,263.228 C148.026337,262.523996 148.917328,261.981335 149.944,261.6 C150.970672,261.218665 152.085327,261.028 153.288,261.028 C153.786669,261.028 154.307331,261.075666 154.85,261.171 C155.392669,261.266334 155.913331,261.412999 156.412,261.611 C156.910669,261.809001 157.379998,262.054665 157.82,262.348 C158.260002,262.641335 158.633998,262.993331 158.942,263.404 L156.83,265.076 Z M160.152,271.676 C160.152,270.839996 160.302332,270.081003 160.603,269.399 C160.903668,268.716997 161.310664,268.134002 161.824,267.65 C162.337336,267.165998 162.945996,266.792001 163.65,266.528 C164.354004,266.263999 165.101996,266.132 165.894,266.132 C166.686004,266.132 167.433996,266.263999 168.138,266.528 C168.842004,266.792001 169.450664,267.165998 169.964,267.65 C170.477336,268.134002 170.884332,268.716997 171.185,269.399 C171.485668,270.081003 171.636,270.839996 171.636,271.676 C171.636,272.512004 171.485668,273.274663 171.185,273.964 C170.884332,274.653337 170.477336,275.243664 169.964,275.735 C169.450664,276.226336 168.842004,276.611332 168.138,276.89 C167.433996,277.168668 166.686004,277.308 165.894,277.308 C165.101996,277.308 164.354004,277.168668 163.65,276.89 C162.945996,276.611332 162.337336,276.226336 161.824,275.735 C161.310664,275.243664 160.903668,274.653337 160.603,273.964 C160.302332,273.274663 160.152,272.512004 160.152,271.676 Z M162.836,271.676 C162.836,272.086669 162.898333,272.497331 163.023,272.908 C163.147667,273.318669 163.334665,273.685332 163.584,274.008 C163.833335,274.330668 164.148665,274.594666 164.53,274.8 C164.911335,275.005334 165.365997,275.108 165.894,275.108 C166.422003,275.108 166.876665,275.005334 167.258,274.8 C167.639335,274.594666 167.954665,274.330668 168.204,274.008 C168.453335,273.685332 168.640333,273.318669 168.765,272.908 C168.889667,272.497331 168.952,272.086669 168.952,271.676 C168.952,271.265331 168.889667,270.858335 168.765,270.455 C168.640333,270.051665 168.453335,269.688668 168.204,269.366 C167.954665,269.043332 167.639335,268.783001 167.258,268.585 C166.876665,268.386999 166.422003,268.288 165.894,268.288 C165.365997,268.288 164.911335,268.386999 164.53,268.585 C164.148665,268.783001 163.833335,269.043332 163.584,269.366 C163.334665,269.688668 163.147667,270.051665 163.023,270.455 C162.898333,270.858335 162.836,271.265331 162.836,271.676 Z M183.824,277 L181.316,277 L181.316,275.306 L181.272,275.306 C181.037332,275.834003 180.630336,276.299665 180.051,276.703 C179.471664,277.106335 178.786004,277.308 177.994,277.308 C177.304663,277.308 176.714336,277.187001 176.223,276.945 C175.731664,276.702999 175.328335,276.384002 175.013,275.988 C174.697665,275.591998 174.466667,275.137336 174.32,274.624 C174.173333,274.110664 174.1,273.582669 174.1,273.04 L174.1,266.44 L176.74,266.44 L176.74,272.292 C176.74,272.600002 176.762,272.922665 176.806,273.26 C176.85,273.597335 176.945333,273.901665 177.092,274.173 C177.238667,274.444335 177.440332,274.667999 177.697,274.844 C177.953668,275.020001 178.294665,275.108 178.72,275.108 C179.130669,275.108 179.493665,275.023668 179.809,274.855 C180.124335,274.686332 180.380999,274.470001 180.579,274.206 C180.777001,273.941999 180.927333,273.637668 181.03,273.293 C181.132667,272.948332 181.184,272.600002 181.184,272.248 L181.184,266.44 L183.824,266.44 L183.824,277 Z M186.992,266.44 L189.5,266.44 L189.5,268.134 L189.544,268.134 C189.778668,267.605997 190.185664,267.140335 190.765,266.737 C191.344336,266.333665 192.029996,266.132 192.822,266.132 C193.511337,266.132 194.101664,266.252999 194.593,266.495 C195.084336,266.737001 195.487665,267.055998 195.803,267.452 C196.118335,267.848002 196.349333,268.302664 196.496,268.816 C196.642667,269.329336 196.716,269.857331 196.716,270.4 L196.716,277 L194.076,277 L194.076,271.148 C194.076,270.839998 194.054,270.517335 194.01,270.18 C193.966,269.842665 193.870667,269.538335 193.724,269.267 C193.577333,268.995665 193.375668,268.772001 193.119,268.596 C192.862332,268.419999 192.521335,268.332 192.096,268.332 C191.670665,268.332 191.304002,268.416332 190.996,268.585 C190.687998,268.753668 190.435001,268.969999 190.237,269.234 C190.038999,269.498001 189.888667,269.802332 189.786,270.147 C189.683333,270.491668 189.632,270.839998 189.632,271.192 L189.632,277 L186.992,277 L186.992,266.44 Z M198.278,268.552 L198.278,266.44 L200.126,266.44 L200.126,263.382 L202.722,263.382 L202.722,266.44 L205.362,266.44 L205.362,268.552 L202.722,268.552 L202.722,273.458 C202.722,273.927336 202.806332,274.315998 202.975,274.624 C203.143668,274.932002 203.52133,275.086 204.108,275.086 C204.284001,275.086 204.474666,275.067667 204.68,275.031 C204.885334,274.994333 205.068666,274.939334 205.23,274.866 L205.318,276.934 C205.083332,277.022 204.804668,277.091666 204.482,277.143 C204.159332,277.194334 203.851335,277.22 203.558,277.22 C202.853996,277.22 202.282002,277.121001 201.842,276.923 C201.401998,276.724999 201.053668,276.453668 200.797,276.109 C200.540332,275.764332 200.364334,275.368336 200.269,274.921 C200.173666,274.473664 200.126,273.993336 200.126,273.48 L200.126,268.552 L198.278,268.552 Z M207.276,266.44 L209.806,266.44 L209.806,268.2 L209.85,268.2 C210.143335,267.583997 210.553997,267.085335 211.082,266.704 C211.610003,266.322665 212.225996,266.132 212.93,266.132 C213.032667,266.132 213.142666,266.135667 213.26,266.143 C213.377334,266.150333 213.48,266.168667 213.568,266.198 L213.568,268.618 C213.391999,268.574 213.241667,268.544667 213.117,268.53 C212.992333,268.515333 212.871334,268.508 212.754,268.508 C212.152664,268.508 211.668669,268.617999 211.302,268.838 C210.935332,269.058001 210.649334,269.321998 210.444,269.63 C210.238666,269.938002 210.099334,270.253332 210.026,270.576 C209.952666,270.898668 209.916,271.155332 209.916,271.346 L209.916,277 L207.276,277 L207.276,266.44 Z M213.7,266.44 L216.626,266.44 L219.574,274.118 L219.618,274.118 L222.236,266.44 L224.986,266.44 L219.992,279.266 C219.801332,279.750002 219.596001,280.178998 219.376,280.553 C219.155999,280.927002 218.892002,281.242332 218.584,281.499 C218.275998,281.755668 217.913002,281.949999 217.495,282.082 C217.076998,282.214001 216.57467,282.28 215.988,282.28 C215.767999,282.28 215.544334,282.269 215.317,282.247 C215.089666,282.225 214.858668,282.184667 214.624,282.126 L214.844,279.838 C215.020001,279.896667 215.192332,279.937 215.361,279.959 C215.529668,279.981 215.687333,279.992 215.834,279.992 C216.112668,279.992 216.347332,279.959 216.538,279.893 C216.728668,279.827 216.889999,279.724334 217.022,279.585 C217.154001,279.445666 217.271333,279.273334 217.374,279.068 C217.476667,278.862666 217.586666,278.620668 217.704,278.342 L218.232,277 L213.7,266.44 Z M237.086,261.424 L239.484,261.424 L246.194,277 L243.026,277 L241.574,273.436 L234.82,273.436 L233.412,277 L230.31,277 L237.086,261.424 Z M240.606,271.06 L238.208,264.724 L235.766,271.06 L240.606,271.06 Z M247.602,266.44 L250.11,266.44 L250.11,268.134 L250.154,268.134 C250.388668,267.605997 250.795664,267.140335 251.375,266.737 C251.954336,266.333665 252.639996,266.132 253.432,266.132 C254.121337,266.132 254.711664,266.252999 255.203,266.495 C255.694336,266.737001 256.097665,267.055998 256.413,267.452 C256.728335,267.848002 256.959333,268.302664 257.106,268.816 C257.252667,269.329336 257.326,269.857331 257.326,270.4 L257.326,277 L254.686,277 L254.686,271.148 C254.686,270.839998 254.664,270.517335 254.62,270.18 C254.576,269.842665 254.480667,269.538335 254.334,269.267 C254.187333,268.995665 253.985668,268.772001 253.729,268.596 C253.472332,268.419999 253.131335,268.332 252.706,268.332 C252.280665,268.332 251.914002,268.416332 251.606,268.585 C251.297998,268.753668 251.045001,268.969999 250.847,269.234 C250.648999,269.498001 250.498667,269.802332 250.396,270.147 C250.293333,270.491668 250.242,270.839998 250.242,271.192 L250.242,277 L247.602,277 L247.602,266.44 Z M271.142,266.44 L271.142,276.054 C271.142,277.007338 271.024668,277.868996 270.79,278.639 C270.555332,279.409004 270.192336,280.061664 269.701,280.597 C269.209664,281.132336 268.590004,281.546665 267.842,281.84 C267.093996,282.133335 266.206672,282.28 265.18,282.28 C264.754665,282.28 264.303669,282.243334 263.827,282.17 C263.350331,282.096666 262.881002,281.986667 262.419,281.84 C261.956998,281.693333 261.513335,281.510001 261.088,281.29 C260.662665,281.069999 260.281335,280.820668 259.944,280.542 L261.462,278.496 C261.975336,278.980002 262.554663,279.350332 263.2,279.607 C263.845337,279.863668 264.497997,279.992 265.158,279.992 C265.78867,279.992 266.320331,279.900334 266.753,279.717 C267.185669,279.533666 267.530332,279.280668 267.787,278.958 C268.043668,278.635332 268.226999,278.254002 268.337,277.814 C268.447001,277.373998 268.502,276.890003 268.502,276.362 L268.502,275.592 L268.458,275.592 C268.076665,276.105336 267.589003,276.497665 266.995,276.769 C266.400997,277.040335 265.737337,277.176 265.004,277.176 C264.211996,277.176 263.493337,277.029335 262.848,276.736 C262.202663,276.442665 261.656336,276.046669 261.209,275.548 C260.761664,275.049331 260.413335,274.466337 260.164,273.799 C259.914665,273.131663 259.79,272.424004 259.79,271.676 C259.79,270.91333 259.910999,270.19467 260.153,269.52 C260.395001,268.84533 260.739664,268.258669 261.187,267.76 C261.634336,267.261331 262.176997,266.865335 262.815,266.572 C263.453003,266.278665 264.167996,266.132 264.96,266.132 C265.708004,266.132 266.404663,266.285998 267.05,266.594 C267.695337,266.902002 268.208665,267.378663 268.59,268.024 L268.634,268.024 L268.634,266.44 L271.142,266.44 Z M265.51,268.288 C265.025998,268.288 264.597002,268.375999 264.223,268.552 C263.848998,268.728001 263.533668,268.966332 263.277,269.267 C263.020332,269.567668 262.822334,269.923331 262.683,270.334 C262.543666,270.744669 262.474,271.184664 262.474,271.654 C262.474,272.079335 262.543666,272.489998 262.683,272.886 C262.822334,273.282002 263.020332,273.637665 263.277,273.953 C263.533668,274.268335 263.848998,274.521332 264.223,274.712 C264.597002,274.902668 265.018664,274.998 265.488,274.998 C265.972002,274.998 266.408331,274.906334 266.797,274.723 C267.185669,274.539666 267.515665,274.294002 267.787,273.986 C268.058335,273.677998 268.267333,273.322335 268.414,272.919 C268.560667,272.515665 268.634,272.094002 268.634,271.654 C268.634,271.199331 268.560667,270.766669 268.414,270.356 C268.267333,269.945331 268.058335,269.586002 267.787,269.278 C267.515665,268.969998 267.189335,268.728001 266.808,268.552 C266.426665,268.375999 265.994002,268.288 265.51,268.288 Z M283.946,277 L281.438,277 L281.438,275.306 L281.394,275.306 C281.159332,275.834003 280.752336,276.299665 280.173,276.703 C279.593664,277.106335 278.908004,277.308 278.116,277.308 C277.426663,277.308 276.836336,277.187001 276.345,276.945 C275.853664,276.702999 275.450335,276.384002 275.135,275.988 C274.819665,275.591998 274.588667,275.137336 274.442,274.624 C274.295333,274.110664 274.222,273.582669 274.222,273.04 L274.222,266.44 L276.862,266.44 L276.862,272.292 C276.862,272.600002 276.884,272.922665 276.928,273.26 C276.972,273.597335 277.067333,273.901665 277.214,274.173 C277.360667,274.444335 277.562332,274.667999 277.819,274.844 C278.075668,275.020001 278.416665,275.108 278.842,275.108 C279.252669,275.108 279.615665,275.023668 279.931,274.855 C280.246335,274.686332 280.502999,274.470001 280.701,274.206 C280.899001,273.941999 281.049333,273.637668 281.152,273.293 C281.254667,272.948332 281.306,272.600002 281.306,272.248 L281.306,266.44 L283.946,266.44 L283.946,277 Z M287.158,260.368 L289.798,260.368 L289.798,277 L287.158,277 L287.158,260.368 Z M299.566,275.658 L299.5,275.658 C299.235999,276.127336 298.81067,276.512332 298.224,276.813 C297.63733,277.113668 296.970004,277.264 296.222,277.264 C295.796665,277.264 295.353002,277.209001 294.891,277.099 C294.428998,276.988999 294.003669,276.805668 293.615,276.549 C293.226331,276.292332 292.903668,275.955002 292.647,275.537 C292.390332,275.118998 292.262,274.602003 292.262,273.986 C292.262,273.193996 292.485664,272.563336 292.933,272.094 C293.380336,271.624664 293.955996,271.265335 294.66,271.016 C295.364004,270.766665 296.144996,270.601667 297.003,270.521 C297.861004,270.440333 298.700663,270.4 299.522,270.4 L299.522,270.136 C299.522,269.475997 299.283669,268.988335 298.807,268.673 C298.330331,268.357665 297.762003,268.2 297.102,268.2 C296.544664,268.2 296.009336,268.317332 295.496,268.552 C294.982664,268.786668 294.557335,269.072665 294.22,269.41 L292.856,267.804 C293.457336,267.246664 294.150329,266.828668 294.935,266.55 C295.719671,266.271332 296.515329,266.132 297.322,266.132 C298.260671,266.132 299.03433,266.263999 299.643,266.528 C300.25167,266.792001 300.731998,267.136665 301.084,267.562 C301.436002,267.987335 301.681666,268.463997 301.821,268.992 C301.960334,269.520003 302.03,270.047997 302.03,270.576 L302.03,277 L299.566,277 L299.566,275.658 Z M299.522,272.182 L298.928,272.182 C298.502665,272.182 298.055336,272.200333 297.586,272.237 C297.116664,272.273667 296.684002,272.354333 296.288,272.479 C295.891998,272.603667 295.562001,272.779666 295.298,273.007 C295.033999,273.234334 294.902,273.545998 294.902,273.942 C294.902,274.191335 294.956999,274.400332 295.067,274.569 C295.177001,274.737668 295.319999,274.873333 295.496,274.976 C295.672001,275.078667 295.869999,275.152 296.09,275.196 C296.310001,275.24 296.529999,275.262 296.75,275.262 C297.659338,275.262 298.348664,275.020002 298.818,274.536 C299.287336,274.051998 299.522,273.392004 299.522,272.556 L299.522,272.182 Z M305.11,266.44 L307.64,266.44 L307.64,268.2 L307.684,268.2 C307.977335,267.583997 308.387997,267.085335 308.916,266.704 C309.444003,266.322665 310.059996,266.132 310.764,266.132 C310.866667,266.132 310.976666,266.135667 311.094,266.143 C311.211334,266.150333 311.314,266.168667 311.402,266.198 L311.402,268.618 C311.225999,268.574 311.075667,268.544667 310.951,268.53 C310.826333,268.515333 310.705334,268.508 310.588,268.508 C309.986664,268.508 309.502669,268.617999 309.136,268.838 C308.769332,269.058001 308.483334,269.321998 308.278,269.63 C308.072666,269.938002 307.933334,270.253332 307.86,270.576 C307.786666,270.898668 307.75,271.155332 307.75,271.346 L307.75,277 L305.11,277 L305.11,266.44 Z" id="path-8"></path>
        <filter x="-1.6%" y="-11.4%" width="103.2%" height="131.9%" filterUnits="objectBoundingBox" id="filter-9">
            <feOffset dx="0" dy="1" in="SourceAlpha" result="shadowOffsetOuter1"></feOffset>
            <feGaussianBlur stdDeviation="1" in="shadowOffsetOuter1" result="shadowBlurOuter1"></feGaussianBlur>
            <feColorMatrix values="0 0 0 0 1   0 0 0 0 1   0 0 0 0 1  0 0 0 0.8 0" type="matrix" in="shadowBlurOuter1"></feColorMatrix>
        </filter>
    </defs>
    <g id="ngHighCountry" stroke="none" stroke-width="1" fill="none" fill-rule="evenodd">
        <g id="ngHighCountry-with-name" transform="translate(0.000000, 0.500000)">
            <g id="400-300">
                <mask id="mask-2" fill="white">
                    <use xlink:href="#path-1"></use>
                </mask>
                <g id="canvas"></g>
                <mask id="mask-4" fill="white">
                    <use xlink:href="#path-3"></use>
                </mask>
                <g id="shield" fill-rule="nonzero">
                    <use fill="black" fill-opacity="1" filter="url(#filter-5)" xlink:href="#path-3"></use>
                    <path stroke="#FFFFFF" stroke-width="3" d="M199.722222,48.4074777 L340.833884,98.7287148 L319.334033,285.111225 L199.722222,351.360099 L80.1104112,285.111225 L58.6105603,98.7287148 L199.722222,48.4074777 Z" fill="#DD0031" fill-rule="evenodd"></path>
                </g>
                <polygon id="shield-shade" fill="#C3002F" fill-rule="nonzero" mask="url(#mask-4)" points="199.444444 83.3 199.444444 235.1 199.444444 350 317.794444 284.45 339.094444 99.8 199.444444 50"></polygon>
                <path d="M154.391602,157.476562 C139.250418,156.277081 114.141602,157.958008 96.3496094,164.552734 C78.1741293,171.289603 68.087756,179.167396 61.6897975,184.023069 C55.632883,188.61991 32.373073,184.71699 30.8761062,192.902817 C25.7723003,220.811833 65.4291408,271.507203 65.4291408,271.507203 L143.976595,274.837698 L230.300832,278.497936 C230.300832,278.497936 343.492791,283.440978 382.704336,284.530374 C421.91588,285.619769 481.388889,131.420213 481.388889,131.420213 C481.388889,131.420213 437.785817,155.615898 397.765515,170.920614 C363.503906,184.023069 333.339844,188.659428 305.848401,188.659428 C279.85109,188.659428 248.492752,181.410162 235.217175,177.628685 C194.61048,166.062088 179.900381,159.497362 154.391602,157.476562 Z" id="hill-5" fill="#EE8098" mask="url(#mask-4)"></path>
                <path d="M249.186663,201.349291 C242.804373,201.349291 200.431641,205.506836 171.264755,217.52301 C142.097869,229.539184 133.238787,230.59024 132.168945,236.44043 C128.521393,256.386249 182.790113,284.903686 182.790113,284.903686 L238.925856,287.283901 L300.619456,289.899774 C300.619456,289.899774 381.514691,293.432433 409.538122,294.210994 C437.561554,294.989556 400.205327,261.943359 400.205327,261.943359 C400.205327,261.943359 343.272601,216.183323 335.123148,213.017169 C309.391322,203.020065 262.740598,201.349291 249.186663,201.349291 Z" id="hill-4" fill="#F199AC" mask="url(#mask-4)"></path>
                <path d="M18.7553669,232.283114 C-15.9441387,253.520058 -0.949719706,336.162238 -0.949719706,336.162238 L181.170973,343.884347 C181.170973,343.884347 306.205162,349.344534 349.519048,350.547903 C372.323777,351.181476 378.602968,337.975098 379.436484,325.326589 C380.186097,313.951305 376.5312,303.027231 376.5312,303.027231 C376.5312,303.027231 335.811009,275.529752 254.116816,254.1015 C194.599609,238.490234 181.251666,207.710142 134.230469,201.535156 C87.2092715,195.36017 58.1289063,208.185547 18.7553669,232.283114 Z" id="hill-3" fill="#F4B3C1" mask="url(#mask-4)"></path>
                <path d="M117.567321,335.560172 C84.1252158,335.560172 -33.7163046,284.020168 -53.588025,299.101631 C-98.9317186,333.514819 -174.834515,370.952148 -174.834515,370.952148 L105.082269,382.820914 C105.082269,382.820914 297.257949,391.21314 363.830745,393.0627 C430.403542,394.91226 405.348019,320.024136 405.348019,320.024136 C405.348019,320.024136 458.803085,286.520228 363.830745,250.249022 C361.81266,249.478289 349.958193,238.9263 348.122772,238.272392 C316.603516,227.042969 278.058594,232.096698 245.611275,250.249022 C213.163956,268.401346 198.820312,292.560547 177.167969,307.019531 C132.39208,336.919938 140.949771,335.560172 117.567321,335.560172 Z" id="hill-2" fill="#F8CCD5" mask="url(#mask-4)"></path>
                <path d="M125.571245,271.765957 C90.2402344,265.064453 53.5949628,279.758373 38.6020822,291.137084 C4.39102407,317.101259 15.7514823,411.598382 15.7514823,411.598382 L226.944013,420.553168 C226.944013,420.553168 371.937348,426.884962 422.165409,428.280424 C472.39347,429.675886 453.489497,373.17405 453.489497,373.17405 C453.489497,373.17405 335.382055,351.838431 259.513293,326.669215 C183.644531,301.5 168.791903,279.963952 125.571245,271.765957 Z" id="hill-1-front" fill="#FBE6EA" mask="url(#mask-4)"></path>
                <g id="A-Copy" mask="url(#mask-4)" fill-rule="nonzero">
                    <use fill="black" fill-opacity="1" filter="url(#filter-7)" xlink:href="#path-6"></use>
                    <use fill="#FFFFFF" fill-rule="evenodd" xlink:href="#path-6"></use>
                </g>
                <g id="High-Country-Angular-Copy" mask="url(#mask-4)">
                    <use fill="black" fill-opacity="1" filter="url(#filter-9)" xlink:href="#path-8"></use>
                    <use fill="#FFFFFF" fill-rule="evenodd" xlink:href="#path-8"></use>
                    <use fill="#C3002F" fill-rule="evenodd" xlink:href="#path-8"></use>
                </g>
            </g>
        </g>
    </g>
</svg>