<?xml version="1.0" encoding="UTF-8"?>
<svg width="309px" height="329px" viewBox="0 0 309 329" version="1.1" xmlns="http://www.w3.org/2000/svg" xmlns:xlink="http://www.w3.org/1999/xlink">
    <!-- Generator: Sketch 50.2 (55047) - http://www.bohemiancoding.com/sketch -->
    <title>ngHighCountry-with-name</title>
    <desc>Created with Sketch.</desc>
    <defs>
        <polygon id="path-1" points="139.722222 0 139.722222 0 139.722222 0 0.237293144 49.7411348 21.5121158 234.172872 139.722222 299.64539 139.722222 299.64539 139.722222 299.64539 257.932329 234.172872 279.207151 49.7411348"></polygon>
        <filter x="-7.9%" y="-6.7%" width="115.8%" height="114.7%" filterUnits="objectBoundingBox" id="filter-3">
            <feMorphology radius="3" operator="dilate" in="SourceAlpha" result="shadowSpreadOuter1"></feMorphology>
            <feOffset dx="0" dy="2" in="shadowSpreadOuter1" result="shadowOffsetOuter1"></feOffset>
            <feGaussianBlur stdDeviation="6" in="shadowOffsetOuter1" result="shadowBlurOuter1"></feGaussianBlur>
            <feComposite in="shadowBlurOuter1" in2="SourceAlpha" operator="out" result="shadowBlurOuter1"></feComposite>
            <feColorMatrix values="0 0 0 0 0   0 0 0 0 0   0 0 0 0 0  0 0 0 0.2 0" type="matrix" in="shadowBlurOuter1"></feColorMatrix>
        </filter>
        <path d="M139.635112,19 L61,196 L61,196 L90.3192771,196 L90.3192771,196 L106.127367,156.395402 L172.872633,156.395402 L188.680723,196 L188.680723,196 L218,196 L218,196 L139.635112,19 L139.635112,19 L139.635112,19 L139.635112,19 L139.635112,19 Z M162.604131,131.981609 L116.666093,131.981609 L139.635112,76.508046 L162.604131,131.981609 Z" id="path-4"></path>
        <filter x="-9.2%" y="-8.2%" width="119.7%" height="117.5%" filterUnits="objectBoundingBox" id="filter-5">
            <feOffset dx="1" dy="1" in="SourceAlpha" result="shadowOffsetOuter1"></feOffset>
            <feGaussianBlur stdDeviation="5" in="shadowOffsetOuter1" result="shadowBlurOuter1"></feGaussianBlur>
            <feColorMatrix values="0 0 0 0 0.764705882   0 0 0 0 0   0 0 0 0 0.184313725  0 0 0 0.75 0" type="matrix" in="shadowBlurOuter1"></feColorMatrix>
        </filter>
        <path d="M31.182,211.424 L33.954,211.424 L33.954,217.716 L41.236,217.716 L41.236,211.424 L44.008,211.424 L44.008,227 L41.236,227 L41.236,220.092 L33.954,220.092 L33.954,227 L31.182,227 L31.182,211.424 Z M47.352,216.44 L49.992,216.44 L49.992,227 L47.352,227 L47.352,216.44 Z M46.978,212.854 C46.978,212.428665 47.1356651,212.058335 47.451,211.743 C47.7663349,211.427665 48.1659976,211.27 48.65,211.27 C49.1340024,211.27 49.5409984,211.420332 49.871,211.721 C50.2010017,212.021668 50.366,212.399331 50.366,212.854 C50.366,213.308669 50.2010017,213.686332 49.871,213.987 C49.5409984,214.287668 49.1340024,214.438 48.65,214.438 C48.1659976,214.438 47.7663349,214.280335 47.451,213.965 C47.1356651,213.649665 46.978,213.279335 46.978,212.854 Z M63.94,216.44 L63.94,226.054 C63.94,227.007338 63.8226678,227.868996 63.588,228.639 C63.3533322,229.409004 62.9903358,230.061664 62.499,230.597 C62.0076642,231.132336 61.3880037,231.546665 60.64,231.84 C59.8919963,232.133335 59.0046718,232.28 57.978,232.28 C57.5526645,232.28 57.1016691,232.243334 56.625,232.17 C56.148331,232.096666 55.6790023,231.986667 55.217,231.84 C54.7549977,231.693333 54.3113355,231.510001 53.886,231.29 C53.4606645,231.069999 53.079335,230.820668 52.742,230.542 L54.26,228.496 C54.7733359,228.980002 55.3526634,229.350332 55.998,229.607 C56.6433366,229.863668 57.2959967,229.992 57.956,229.992 C58.5866698,229.992 59.1183312,229.900334 59.551,229.717 C59.9836688,229.533666 60.3283321,229.280668 60.585,228.958 C60.841668,228.635332 61.0249995,228.254002 61.135,227.814 C61.2450006,227.373998 61.3,226.890003 61.3,226.362 L61.3,225.592 L61.256,225.592 C60.8746648,226.105336 60.387003,226.497665 59.793,226.769 C59.198997,227.040335 58.535337,227.176 57.802,227.176 C57.009996,227.176 56.2913366,227.029335 55.646,226.736 C55.0006634,226.442665 54.4543356,226.046669 54.007,225.548 C53.5596644,225.049331 53.2113346,224.466337 52.962,223.799 C52.7126654,223.131663 52.588,222.424004 52.588,221.676 C52.588,220.91333 52.7089988,220.19467 52.951,219.52 C53.1930012,218.84533 53.5376644,218.258669 53.985,217.76 C54.4323356,217.261331 54.9749968,216.865335 55.613,216.572 C56.2510032,216.278665 56.965996,216.132 57.758,216.132 C58.5060037,216.132 59.2026634,216.285998 59.848,216.594 C60.4933366,216.902002 61.0066648,217.378663 61.388,218.024 L61.432,218.024 L61.432,216.44 L63.94,216.44 Z M58.308,218.288 C57.8239976,218.288 57.3950019,218.375999 57.021,218.552 C56.6469981,218.728001 56.331668,218.966332 56.075,219.267 C55.8183321,219.567668 55.620334,219.923331 55.481,220.334 C55.341666,220.744669 55.272,221.184664 55.272,221.654 C55.272,222.079335 55.341666,222.489998 55.481,222.886 C55.620334,223.282002 55.8183321,223.637665 56.075,223.953 C56.331668,224.268335 56.6469981,224.521332 57.021,224.712 C57.3950019,224.902668 57.8166643,224.998 58.286,224.998 C58.7700024,224.998 59.2063314,224.906334 59.595,224.723 C59.9836686,224.539666 60.3136653,224.294002 60.585,223.986 C60.8563347,223.677998 61.0653326,223.322335 61.212,222.919 C61.3586674,222.515665 61.432,222.094002 61.432,221.654 C61.432,221.199331 61.3586674,220.766669 61.212,220.356 C61.0653326,219.945331 60.8563347,219.586002 60.585,219.278 C60.3136653,218.969998 59.9873352,218.728001 59.606,218.552 C59.2246648,218.375999 58.7920024,218.288 58.308,218.288 Z M72.982,216.132 C73.6713368,216.132 74.2616642,216.252999 74.753,216.495 C75.2443358,216.737001 75.6476651,217.055998 75.963,217.452 C76.2783349,217.848002 76.5093326,218.302664 76.656,218.816 C76.8026674,219.329336 76.876,219.857331 76.876,220.4 L76.876,227 L74.236,227 L74.236,221.192 C74.236,220.883998 74.2140002,220.565002 74.17,220.235 C74.1259998,219.904998 74.034334,219.604335 73.895,219.333 C73.755666,219.061665 73.557668,218.838001 73.301,218.662 C73.0443321,218.485999 72.7033355,218.398 72.278,218.398 C71.8526645,218.398 71.4860015,218.478666 71.178,218.64 C70.8699985,218.801334 70.6133344,219.017665 70.408,219.289 C70.2026656,219.560335 70.0486672,219.864665 69.946,220.202 C69.8433328,220.539335 69.792,220.883998 69.792,221.236 L69.792,227 L67.152,227 L67.152,210.368 L69.792,210.368 L69.792,217.914 L69.836,217.914 C69.9386672,217.693999 70.088999,217.477668 70.287,217.265 C70.485001,217.052332 70.7159987,216.861668 70.98,216.693 C71.2440013,216.524332 71.544665,216.388667 71.882,216.286 C72.219335,216.183333 72.585998,216.132 72.982,216.132 Z M96.83,215.076 C96.4193313,214.518664 95.8840033,214.111668 95.224,213.855 C94.5639967,213.598332 93.9186698,213.47 93.288,213.47 C92.4813293,213.47 91.7480033,213.616665 91.088,213.91 C90.4279967,214.203335 89.8596691,214.606664 89.383,215.12 C88.906331,215.633336 88.539668,216.234663 88.283,216.924 C88.0263321,217.613337 87.898,218.361329 87.898,219.168 C87.898,220.018671 88.0226654,220.795996 88.272,221.5 C88.5213346,222.204004 88.8769977,222.808997 89.339,223.315 C89.8010023,223.821003 90.3546634,224.213332 91,224.492 C91.6453366,224.770668 92.3713293,224.91 93.178,224.91 C94.0140042,224.91 94.7546634,224.745002 95.4,224.415 C96.0453366,224.084998 96.565998,223.648669 96.962,223.106 L99.184,224.668 C98.4946632,225.533338 97.6513383,226.204331 96.654,226.681 C95.6566617,227.157669 94.4906733,227.396 93.156,227.396 C91.9386606,227.396 90.8203384,227.194335 89.801,226.791 C88.7816616,226.387665 87.905337,225.823004 87.172,225.097 C86.438663,224.370996 85.8666687,223.505672 85.456,222.501 C85.0453313,221.496328 84.84,220.385339 84.84,219.168 C84.84,217.921327 85.0563312,216.795672 85.489,215.791 C85.9216688,214.786328 86.5156629,213.932004 87.271,213.228 C88.0263371,212.523996 88.9173282,211.981335 89.944,211.6 C90.9706718,211.218665 92.0853273,211.028 93.288,211.028 C93.7866692,211.028 94.3073306,211.075666 94.85,211.171 C95.3926694,211.266334 95.9133308,211.412999 96.412,211.611 C96.9106692,211.809001 97.3799978,212.054665 97.82,212.348 C98.2600022,212.641335 98.6339985,212.993331 98.942,213.404 L96.83,215.076 Z M100.152,221.676 C100.152,220.839996 100.302332,220.081003 100.603,219.399 C100.903668,218.716997 101.310664,218.134002 101.824,217.65 C102.337336,217.165998 102.945996,216.792001 103.65,216.528 C104.354004,216.263999 105.101996,216.132 105.894,216.132 C106.686004,216.132 107.433996,216.263999 108.138,216.528 C108.842004,216.792001 109.450664,217.165998 109.964,217.65 C110.477336,218.134002 110.884332,218.716997 111.185,219.399 C111.485668,220.081003 111.636,220.839996 111.636,221.676 C111.636,222.512004 111.485668,223.274663 111.185,223.964 C110.884332,224.653337 110.477336,225.243664 109.964,225.735 C109.450664,226.226336 108.842004,226.611332 108.138,226.89 C107.433996,227.168668 106.686004,227.308 105.894,227.308 C105.101996,227.308 104.354004,227.168668 103.65,226.89 C102.945996,226.611332 102.337336,226.226336 101.824,225.735 C101.310664,225.243664 100.903668,224.653337 100.603,223.964 C100.302332,223.274663 100.152,222.512004 100.152,221.676 Z M102.836,221.676 C102.836,222.086669 102.898333,222.497331 103.023,222.908 C103.147667,223.318669 103.334665,223.685332 103.584,224.008 C103.833335,224.330668 104.148665,224.594666 104.53,224.8 C104.911335,225.005334 105.365997,225.108 105.894,225.108 C106.422003,225.108 106.876665,225.005334 107.258,224.8 C107.639335,224.594666 107.954665,224.330668 108.204,224.008 C108.453335,223.685332 108.640333,223.318669 108.765,222.908 C108.889667,222.497331 108.952,222.086669 108.952,221.676 C108.952,221.265331 108.889667,220.858335 108.765,220.455 C108.640333,220.051665 108.453335,219.688668 108.204,219.366 C107.954665,219.043332 107.639335,218.783001 107.258,218.585 C106.876665,218.386999 106.422003,218.288 105.894,218.288 C105.365997,218.288 104.911335,218.386999 104.53,218.585 C104.148665,218.783001 103.833335,219.043332 103.584,219.366 C103.334665,219.688668 103.147667,220.051665 103.023,220.455 C102.898333,220.858335 102.836,221.265331 102.836,221.676 Z M123.824,227 L121.316,227 L121.316,225.306 L121.272,225.306 C121.037332,225.834003 120.630336,226.299665 120.051,226.703 C119.471664,227.106335 118.786004,227.308 117.994,227.308 C117.304663,227.308 116.714336,227.187001 116.223,226.945 C115.731664,226.702999 115.328335,226.384002 115.013,225.988 C114.697665,225.591998 114.466667,225.137336 114.32,224.624 C114.173333,224.110664 114.1,223.582669 114.1,223.04 L114.1,216.44 L116.74,216.44 L116.74,222.292 C116.74,222.600002 116.762,222.922665 116.806,223.26 C116.85,223.597335 116.945333,223.901665 117.092,224.173 C117.238667,224.444335 117.440332,224.667999 117.697,224.844 C117.953668,225.020001 118.294665,225.108 118.72,225.108 C119.130669,225.108 119.493665,225.023668 119.809,224.855 C120.124335,224.686332 120.380999,224.470001 120.579,224.206 C120.777001,223.941999 120.927333,223.637668 121.03,223.293 C121.132667,222.948332 121.184,222.600002 121.184,222.248 L121.184,216.44 L123.824,216.44 L123.824,227 Z M126.992,216.44 L129.5,216.44 L129.5,218.134 L129.544,218.134 C129.778668,217.605997 130.185664,217.140335 130.765,216.737 C131.344336,216.333665 132.029996,216.132 132.822,216.132 C133.511337,216.132 134.101664,216.252999 134.593,216.495 C135.084336,216.737001 135.487665,217.055998 135.803,217.452 C136.118335,217.848002 136.349333,218.302664 136.496,218.816 C136.642667,219.329336 136.716,219.857331 136.716,220.4 L136.716,227 L134.076,227 L134.076,221.148 C134.076,220.839998 134.054,220.517335 134.01,220.18 C133.966,219.842665 133.870667,219.538335 133.724,219.267 C133.577333,218.995665 133.375668,218.772001 133.119,218.596 C132.862332,218.419999 132.521335,218.332 132.096,218.332 C131.670665,218.332 131.304002,218.416332 130.996,218.585 C130.687998,218.753668 130.435001,218.969999 130.237,219.234 C130.038999,219.498001 129.888667,219.802332 129.786,220.147 C129.683333,220.491668 129.632,220.839998 129.632,221.192 L129.632,227 L126.992,227 L126.992,216.44 Z M138.278,218.552 L138.278,216.44 L140.126,216.44 L140.126,213.382 L142.722,213.382 L142.722,216.44 L145.362,216.44 L145.362,218.552 L142.722,218.552 L142.722,223.458 C142.722,223.927336 142.806332,224.315998 142.975,224.624 C143.143668,224.932002 143.52133,225.086 144.108,225.086 C144.284001,225.086 144.474666,225.067667 144.68,225.031 C144.885334,224.994333 145.068666,224.939334 145.23,224.866 L145.318,226.934 C145.083332,227.022 144.804668,227.091666 144.482,227.143 C144.159332,227.194334 143.851335,227.22 143.558,227.22 C142.853996,227.22 142.282002,227.121001 141.842,226.923 C141.401998,226.724999 141.053668,226.453668 140.797,226.109 C140.540332,225.764332 140.364334,225.368336 140.269,224.921 C140.173666,224.473664 140.126,223.993336 140.126,223.48 L140.126,218.552 L138.278,218.552 Z M147.276,216.44 L149.806,216.44 L149.806,218.2 L149.85,218.2 C150.143335,217.583997 150.553997,217.085335 151.082,216.704 C151.610003,216.322665 152.225996,216.132 152.93,216.132 C153.032667,216.132 153.142666,216.135667 153.26,216.143 C153.377334,216.150333 153.48,216.168667 153.568,216.198 L153.568,218.618 C153.391999,218.574 153.241667,218.544667 153.117,218.53 C152.992333,218.515333 152.871334,218.508 152.754,218.508 C152.152664,218.508 151.668669,218.617999 151.302,218.838 C150.935332,219.058001 150.649334,219.321998 150.444,219.63 C150.238666,219.938002 150.099334,220.253332 150.026,220.576 C149.952666,220.898668 149.916,221.155332 149.916,221.346 L149.916,227 L147.276,227 L147.276,216.44 Z M153.7,216.44 L156.626,216.44 L159.574,224.118 L159.618,224.118 L162.236,216.44 L164.986,216.44 L159.992,229.266 C159.801332,229.750002 159.596001,230.178998 159.376,230.553 C159.155999,230.927002 158.892002,231.242332 158.584,231.499 C158.275998,231.755668 157.913002,231.949999 157.495,232.082 C157.076998,232.214001 156.57467,232.28 155.988,232.28 C155.767999,232.28 155.544334,232.269 155.317,232.247 C155.089666,232.225 154.858668,232.184667 154.624,232.126 L154.844,229.838 C155.020001,229.896667 155.192332,229.937 155.361,229.959 C155.529668,229.981 155.687333,229.992 155.834,229.992 C156.112668,229.992 156.347332,229.959 156.538,229.893 C156.728668,229.827 156.889999,229.724334 157.022,229.585 C157.154001,229.445666 157.271333,229.273334 157.374,229.068 C157.476667,228.862666 157.586666,228.620668 157.704,228.342 L158.232,227 L153.7,216.44 Z M177.086,211.424 L179.484,211.424 L186.194,227 L183.026,227 L181.574,223.436 L174.82,223.436 L173.412,227 L170.31,227 L177.086,211.424 Z M180.606,221.06 L178.208,214.724 L175.766,221.06 L180.606,221.06 Z M187.602,216.44 L190.11,216.44 L190.11,218.134 L190.154,218.134 C190.388668,217.605997 190.795664,217.140335 191.375,216.737 C191.954336,216.333665 192.639996,216.132 193.432,216.132 C194.121337,216.132 194.711664,216.252999 195.203,216.495 C195.694336,216.737001 196.097665,217.055998 196.413,217.452 C196.728335,217.848002 196.959333,218.302664 197.106,218.816 C197.252667,219.329336 197.326,219.857331 197.326,220.4 L197.326,227 L194.686,227 L194.686,221.148 C194.686,220.839998 194.664,220.517335 194.62,220.18 C194.576,219.842665 194.480667,219.538335 194.334,219.267 C194.187333,218.995665 193.985668,218.772001 193.729,218.596 C193.472332,218.419999 193.131335,218.332 192.706,218.332 C192.280665,218.332 191.914002,218.416332 191.606,218.585 C191.297998,218.753668 191.045001,218.969999 190.847,219.234 C190.648999,219.498001 190.498667,219.802332 190.396,220.147 C190.293333,220.491668 190.242,220.839998 190.242,221.192 L190.242,227 L187.602,227 L187.602,216.44 Z M211.142,216.44 L211.142,226.054 C211.142,227.007338 211.024668,227.868996 210.79,228.639 C210.555332,229.409004 210.192336,230.061664 209.701,230.597 C209.209664,231.132336 208.590004,231.546665 207.842,231.84 C207.093996,232.133335 206.206672,232.28 205.18,232.28 C204.754665,232.28 204.303669,232.243334 203.827,232.17 C203.350331,232.096666 202.881002,231.986667 202.419,231.84 C201.956998,231.693333 201.513335,231.510001 201.088,231.29 C200.662665,231.069999 200.281335,230.820668 199.944,230.542 L201.462,228.496 C201.975336,228.980002 202.554663,229.350332 203.2,229.607 C203.845337,229.863668 204.497997,229.992 205.158,229.992 C205.78867,229.992 206.320331,229.900334 206.753,229.717 C207.185669,229.533666 207.530332,229.280668 207.787,228.958 C208.043668,228.635332 208.226999,228.254002 208.337,227.814 C208.447001,227.373998 208.502,226.890003 208.502,226.362 L208.502,225.592 L208.458,225.592 C208.076665,226.105336 207.589003,226.497665 206.995,226.769 C206.400997,227.040335 205.737337,227.176 205.004,227.176 C204.211996,227.176 203.493337,227.029335 202.848,226.736 C202.202663,226.442665 201.656336,226.046669 201.209,225.548 C200.761664,225.049331 200.413335,224.466337 200.164,223.799 C199.914665,223.131663 199.79,222.424004 199.79,221.676 C199.79,220.91333 199.910999,220.19467 200.153,219.52 C200.395001,218.84533 200.739664,218.258669 201.187,217.76 C201.634336,217.261331 202.176997,216.865335 202.815,216.572 C203.453003,216.278665 204.167996,216.132 204.96,216.132 C205.708004,216.132 206.404663,216.285998 207.05,216.594 C207.695337,216.902002 208.208665,217.378663 208.59,218.024 L208.634,218.024 L208.634,216.44 L211.142,216.44 Z M205.51,218.288 C205.025998,218.288 204.597002,218.375999 204.223,218.552 C203.848998,218.728001 203.533668,218.966332 203.277,219.267 C203.020332,219.567668 202.822334,219.923331 202.683,220.334 C202.543666,220.744669 202.474,221.184664 202.474,221.654 C202.474,222.079335 202.543666,222.489998 202.683,222.886 C202.822334,223.282002 203.020332,223.637665 203.277,223.953 C203.533668,224.268335 203.848998,224.521332 204.223,224.712 C204.597002,224.902668 205.018664,224.998 205.488,224.998 C205.972002,224.998 206.408331,224.906334 206.797,224.723 C207.185669,224.539666 207.515665,224.294002 207.787,223.986 C208.058335,223.677998 208.267333,223.322335 208.414,222.919 C208.560667,222.515665 208.634,222.094002 208.634,221.654 C208.634,221.199331 208.560667,220.766669 208.414,220.356 C208.267333,219.945331 208.058335,219.586002 207.787,219.278 C207.515665,218.969998 207.189335,218.728001 206.808,218.552 C206.426665,218.375999 205.994002,218.288 205.51,218.288 Z M223.946,227 L221.438,227 L221.438,225.306 L221.394,225.306 C221.159332,225.834003 220.752336,226.299665 220.173,226.703 C219.593664,227.106335 218.908004,227.308 218.116,227.308 C217.426663,227.308 216.836336,227.187001 216.345,226.945 C215.853664,226.702999 215.450335,226.384002 215.135,225.988 C214.819665,225.591998 214.588667,225.137336 214.442,224.624 C214.295333,224.110664 214.222,223.582669 214.222,223.04 L214.222,216.44 L216.862,216.44 L216.862,222.292 C216.862,222.600002 216.884,222.922665 216.928,223.26 C216.972,223.597335 217.067333,223.901665 217.214,224.173 C217.360667,224.444335 217.562332,224.667999 217.819,224.844 C218.075668,225.020001 218.416665,225.108 218.842,225.108 C219.252669,225.108 219.615665,225.023668 219.931,224.855 C220.246335,224.686332 220.502999,224.470001 220.701,224.206 C220.899001,223.941999 221.049333,223.637668 221.152,223.293 C221.254667,222.948332 221.306,222.600002 221.306,222.248 L221.306,216.44 L223.946,216.44 L223.946,227 Z M227.158,210.368 L229.798,210.368 L229.798,227 L227.158,227 L227.158,210.368 Z M239.566,225.658 L239.5,225.658 C239.235999,226.127336 238.81067,226.512332 238.224,226.813 C237.63733,227.113668 236.970004,227.264 236.222,227.264 C235.796665,227.264 235.353002,227.209001 234.891,227.099 C234.428998,226.988999 234.003669,226.805668 233.615,226.549 C233.226331,226.292332 232.903668,225.955002 232.647,225.537 C232.390332,225.118998 232.262,224.602003 232.262,223.986 C232.262,223.193996 232.485664,222.563336 232.933,222.094 C233.380336,221.624664 233.955996,221.265335 234.66,221.016 C235.364004,220.766665 236.144996,220.601667 237.003,220.521 C237.861004,220.440333 238.700663,220.4 239.522,220.4 L239.522,220.136 C239.522,219.475997 239.283669,218.988335 238.807,218.673 C238.330331,218.357665 237.762003,218.2 237.102,218.2 C236.544664,218.2 236.009336,218.317332 235.496,218.552 C234.982664,218.786668 234.557335,219.072665 234.22,219.41 L232.856,217.804 C233.457336,217.246664 234.150329,216.828668 234.935,216.55 C235.719671,216.271332 236.515329,216.132 237.322,216.132 C238.260671,216.132 239.03433,216.263999 239.643,216.528 C240.25167,216.792001 240.731998,217.136665 241.084,217.562 C241.436002,217.987335 241.681666,218.463997 241.821,218.992 C241.960334,219.520003 242.03,220.047997 242.03,220.576 L242.03,227 L239.566,227 L239.566,225.658 Z M239.522,222.182 L238.928,222.182 C238.502665,222.182 238.055336,222.200333 237.586,222.237 C237.116664,222.273667 236.684002,222.354333 236.288,222.479 C235.891998,222.603667 235.562001,222.779666 235.298,223.007 C235.033999,223.234334 234.902,223.545998 234.902,223.942 C234.902,224.191335 234.956999,224.400332 235.067,224.569 C235.177001,224.737668 235.319999,224.873333 235.496,224.976 C235.672001,225.078667 235.869999,225.152 236.09,225.196 C236.310001,225.24 236.529999,225.262 236.75,225.262 C237.659338,225.262 238.348664,225.020002 238.818,224.536 C239.287336,224.051998 239.522,223.392004 239.522,222.556 L239.522,222.182 Z M245.11,216.44 L247.64,216.44 L247.64,218.2 L247.684,218.2 C247.977335,217.583997 248.387997,217.085335 248.916,216.704 C249.444003,216.322665 250.059996,216.132 250.764,216.132 C250.866667,216.132 250.976666,216.135667 251.094,216.143 C251.211334,216.150333 251.314,216.168667 251.402,216.198 L251.402,218.618 C251.225999,218.574 251.075667,218.544667 250.951,218.53 C250.826333,218.515333 250.705334,218.508 250.588,218.508 C249.986664,218.508 249.502669,218.617999 249.136,218.838 C248.769332,219.058001 248.483334,219.321998 248.278,219.63 C248.072666,219.938002 247.933334,220.253332 247.86,220.576 C247.786666,220.898668 247.75,221.155332 247.75,221.346 L247.75,227 L245.11,227 L245.11,216.44 Z" id="path-6"></path>
        <filter x="-1.6%" y="-11.4%" width="103.2%" height="131.9%" filterUnits="objectBoundingBox" id="filter-7">
            <feOffset dx="0" dy="1" in="SourceAlpha" result="shadowOffsetOuter1"></feOffset>
            <feGaussianBlur stdDeviation="1" in="shadowOffsetOuter1" result="shadowBlurOuter1"></feGaussianBlur>
            <feColorMatrix values="0 0 0 0 1   0 0 0 0 1   0 0 0 0 1  0 0 0 0.8 0" type="matrix" in="shadowBlurOuter1"></feColorMatrix>
        </filter>
    </defs>
    <g id="ngHighCountry" stroke="none" stroke-width="1" fill="none" fill-rule="evenodd">
        <g id="ngHighCountry-with-name" transform="translate(15.000000, 12.500000)">
            <mask id="mask-2" fill="white">
                <use xlink:href="#path-1"></use>
            </mask>
            <g id="shield" fill-rule="nonzero">
                <use fill="black" fill-opacity="1" filter="url(#filter-3)" xlink:href="#path-1"></use>
                <path stroke="#FFFFFF" stroke-width="3" d="M139.722222,-1.59252231 L280.833884,48.7287148 L259.334033,235.111225 L139.722222,301.360099 L20.1104112,235.111225 L-1.38943973,48.7287148 L139.722222,-1.59252231 Z" fill="#DD0031" fill-rule="evenodd"></path>
            </g>
            <polygon id="shield-shade" fill="#C3002F" fill-rule="nonzero" mask="url(#mask-2)" points="139.444444 33.3 139.444444 185.1 139.444444 300 257.794444 234.45 279.094444 49.8 139.444444 0"></polygon>
            <path d="M94.3916016,107.476562 C79.2504184,106.277081 54.1416016,107.958008 36.3496094,114.552734 C18.1741293,121.289603 8.087756,129.167396 1.68979753,134.023069 C-4.36711703,138.61991 -27.626927,134.71699 -29.1238938,142.902817 C-34.2276997,170.811833 5.42914084,221.507203 5.42914084,221.507203 L83.976595,224.837698 L170.300832,228.497936 C170.300832,228.497936 283.492791,233.440978 322.704336,234.530374 C361.91588,235.619769 421.388889,81.4202128 421.388889,81.4202128 C421.388889,81.4202128 377.785817,105.615898 337.765515,120.920614 C303.503906,134.023069 273.339844,138.659428 245.848401,138.659428 C219.85109,138.659428 188.492752,131.410162 175.217175,127.628685 C134.61048,116.062088 119.900381,109.497362 94.3916016,107.476562 Z" id="hill-5" fill="#EE8098" mask="url(#mask-2)"></path>
            <path d="M189.186663,151.349291 C182.804373,151.349291 140.431641,155.506836 111.264755,167.52301 C82.0978693,179.539184 73.2387871,180.59024 72.1689453,186.44043 C68.5213931,206.386249 122.790113,234.903686 122.790113,234.903686 L178.925856,237.283901 L240.619456,239.899774 C240.619456,239.899774 321.514691,243.432433 349.538122,244.210994 C377.561554,244.989556 340.205327,211.943359 340.205327,211.943359 C340.205327,211.943359 283.272601,166.183323 275.123148,163.017169 C249.391322,153.020065 202.740598,151.349291 189.186663,151.349291 Z" id="hill-4" fill="#F199AC" mask="url(#mask-2)"></path>
            <path d="M-41.2446331,182.283114 C-75.9441387,203.520058 -60.9497197,286.162238 -60.9497197,286.162238 L121.170973,293.884347 C121.170973,293.884347 246.205162,299.344534 289.519048,300.547903 C312.323777,301.181476 318.602968,287.975098 319.436484,275.326589 C320.186097,263.951305 316.5312,253.027231 316.5312,253.027231 C316.5312,253.027231 275.811009,225.529752 194.116816,204.1015 C134.599609,188.490234 121.251666,157.710142 74.2304688,151.535156 C27.2092715,145.36017 -1.87109375,158.185547 -41.2446331,182.283114 Z" id="hill-3" fill="#F4B3C1" mask="url(#mask-2)"></path>
            <path d="M57.5673208,285.560172 C24.1252158,285.560172 -93.7163046,234.020168 -113.588025,249.101631 C-158.931719,283.514819 -234.834515,320.952148 -234.834515,320.952148 L45.082269,332.820914 C45.082269,332.820914 237.257949,341.21314 303.830745,343.0627 C370.403542,344.91226 345.348019,270.024136 345.348019,270.024136 C345.348019,270.024136 398.803085,236.520228 303.830745,200.249022 C301.81266,199.478289 289.958193,188.9263 288.122772,188.272392 C256.603516,177.042969 218.058594,182.096698 185.611275,200.249022 C153.163956,218.401346 138.820312,242.560547 117.167969,257.019531 C72.3920798,286.919938 80.949771,285.560172 57.5673208,285.560172 Z" id="hill-2" fill="#F8CCD5" mask="url(#mask-2)"></path>
            <path d="M65.5712448,221.765957 C30.2402344,215.064453 -6.40503721,229.758373 -21.3979178,241.137084 C-55.6089759,267.101259 -44.2485177,361.598382 -44.2485177,361.598382 L166.944013,370.553168 C166.944013,370.553168 311.937348,376.884962 362.165409,378.280424 C412.39347,379.675886 393.489497,323.17405 393.489497,323.17405 C393.489497,323.17405 275.382055,301.838431 199.513293,276.669215 C123.644531,251.5 108.791903,229.963952 65.5712448,221.765957 Z" id="hill-1-front" fill="#FBE6EA" mask="url(#mask-2)"></path>
            <g id="A-Copy" fill-rule="nonzero">
                <use fill="black" fill-opacity="1" filter="url(#filter-5)" xlink:href="#path-4"></use>
                <use fill="#FFFFFF" fill-rule="evenodd" xlink:href="#path-4"></use>
            </g>
            <g id="High-Country-Angular-Copy">
                <use fill="black" fill-opacity="1" filter="url(#filter-7)" xlink:href="#path-6"></use>
                <use fill="#FFFFFF" fill-rule="evenodd" xlink:href="#path-6"></use>
                <use fill="#C3002F" fill-rule="evenodd" xlink:href="#path-6"></use>
            </g>
        </g>
    </g>
</svg>