<?xml version="1.0" encoding="UTF-8"?>
<svg width="309px" height="329px" viewBox="0 0 309 329" version="1.1" xmlns="http://www.w3.org/2000/svg" xmlns:xlink="http://www.w3.org/1999/xlink">
    <!-- Generator: Sketch 50.2 (55047) - http://www.bohemiancoding.com/sketch -->
    <title>ngHighCountry</title>
    <desc>Created with Sketch.</desc>
    <defs>
        <rect id="path-1" x="0" y="0" width="400" height="400"></rect>
        <linearGradient x1="50%" y1="42.4447023%" x2="50%" y2="0%" id="linearGradient-3">
            <stop stop-color="#74A0CA" offset="0%"></stop>
            <stop stop-color="#40669A" offset="100%"></stop>
        </linearGradient>
        <polygon id="path-4" points="199.722222 50 199.722222 50 199.722222 50 60.2372931 99.7411348 81.5121158 284.172872 199.722222 349.64539 199.722222 349.64539 199.722222 349.64539 317.932329 284.172872 339.207151 99.7411348"></polygon>
        <filter x="-7.9%" y="-6.7%" width="115.8%" height="114.7%" filterUnits="objectBoundingBox" id="filter-6">
            <feMorphology radius="3" operator="dilate" in="SourceAlpha" result="shadowSpreadOuter1"></feMorphology>
            <feOffset dx="0" dy="2" in="shadowSpreadOuter1" result="shadowOffsetOuter1"></feOffset>
            <feGaussianBlur stdDeviation="6" in="shadowOffsetOuter1" result="shadowBlurOuter1"></feGaussianBlur>
            <feComposite in="shadowBlurOuter1" in2="SourceAlpha" operator="out" result="shadowBlurOuter1"></feComposite>
            <feColorMatrix values="0 0 0 0 0   0 0 0 0 0   0 0 0 0 0  0 0 0 0.2 0" type="matrix" in="shadowBlurOuter1"></feColorMatrix>
        </filter>
        <linearGradient x1="50%" y1="47.9016927%" x2="50%" y2="0%" id="linearGradient-7">
            <stop stop-color="#4B80B3" offset="0%"></stop>
            <stop stop-color="#24497C" offset="100%"></stop>
        </linearGradient>
        <linearGradient x1="50%" y1="70.5639497%" x2="50%" y2="13.3067227%" id="linearGradient-8">
            <stop stop-color="#D8E3F0" offset="0%"></stop>
            <stop stop-color="#AFC3DD" offset="100%"></stop>
        </linearGradient>
        <linearGradient x1="50%" y1="60.3176729%" x2="50%" y2="0%" id="linearGradient-9">
            <stop stop-color="#C1D4EA" offset="0%"></stop>
            <stop stop-color="#8EAAD0" offset="100%"></stop>
        </linearGradient>
        <path d="M199.635112,69 L121,246 L121,246 L150.319277,246 L150.319277,246 L166.127367,206.395402 L232.872633,206.395402 L248.680723,246 L248.680723,246 L278,246 L278,246 L199.635112,69 L199.635112,69 L199.635112,69 L199.635112,69 L199.635112,69 Z M222.604131,181.981609 L176.666093,181.981609 L199.635112,126.508046 L222.604131,181.981609 Z" id="path-10"></path>
        <filter x="-9.2%" y="-8.2%" width="119.7%" height="117.5%" filterUnits="objectBoundingBox" id="filter-11">
            <feOffset dx="1" dy="1" in="SourceAlpha" result="shadowOffsetOuter1"></feOffset>
            <feGaussianBlur stdDeviation="5" in="shadowOffsetOuter1" result="shadowBlurOuter1"></feGaussianBlur>
            <feColorMatrix values="0 0 0 0 0.137342289   0 0 0 0 0.264894587   0 0 0 0 0.439439838  0 0 0 0.75 0" type="matrix" in="shadowBlurOuter1"></feColorMatrix>
        </filter>
        <linearGradient x1="50%" y1="50%" x2="50%" y2="0%" id="linearGradient-12">
            <stop stop-color="#ABC7E4" offset="0%"></stop>
            <stop stop-color="#7395C4" offset="100%"></stop>
        </linearGradient>
        <linearGradient x1="50%" y1="60.6164465%" x2="50%" y2="0%" id="linearGradient-13">
            <stop stop-color="#97B6D7" offset="0%"></stop>
            <stop stop-color="#5D80AF" offset="100%"></stop>
        </linearGradient>
        <linearGradient x1="50%" y1="59.7427738%" x2="50%" y2="0%" id="linearGradient-14">
            <stop stop-color="#749FCA" offset="0%"></stop>
            <stop stop-color="#40669A" offset="100%"></stop>
        </linearGradient>
        <path d="M92.082,255.424 L94.854,255.424 L94.854,261.716 L102.136,261.716 L102.136,255.424 L104.908,255.424 L104.908,271 L102.136,271 L102.136,264.092 L94.854,264.092 L94.854,271 L92.082,271 L92.082,255.424 Z M108.192,260.44 L110.832,260.44 L110.832,271 L108.192,271 L108.192,260.44 Z M107.818,256.854 C107.818,256.428665 107.975665,256.058335 108.291,255.743 C108.606335,255.427665 109.005998,255.27 109.49,255.27 C109.974002,255.27 110.380998,255.420332 110.711,255.721 C111.041002,256.021668 111.206,256.399331 111.206,256.854 C111.206,257.308669 111.041002,257.686332 110.711,257.987 C110.380998,258.287668 109.974002,258.438 109.49,258.438 C109.005998,258.438 108.606335,258.280335 108.291,257.965 C107.975665,257.649665 107.818,257.279335 107.818,256.854 Z M124.72,260.44 L124.72,270.054 C124.72,271.007338 124.602668,271.868996 124.368,272.639 C124.133332,273.409004 123.770336,274.061664 123.279,274.597 C122.787664,275.132336 122.168004,275.546665 121.42,275.84 C120.671996,276.133335 119.784672,276.28 118.758,276.28 C118.332665,276.28 117.881669,276.243334 117.405,276.17 C116.928331,276.096666 116.459002,275.986667 115.997,275.84 C115.534998,275.693333 115.091335,275.510001 114.666,275.29 C114.240665,275.069999 113.859335,274.820668 113.522,274.542 L115.04,272.496 C115.553336,272.980002 116.132663,273.350332 116.778,273.607 C117.423337,273.863668 118.075997,273.992 118.736,273.992 C119.36667,273.992 119.898331,273.900334 120.331,273.717 C120.763669,273.533666 121.108332,273.280668 121.365,272.958 C121.621668,272.635332 121.804999,272.254002 121.915,271.814 C122.025001,271.373998 122.08,270.890003 122.08,270.362 L122.08,269.592 L122.036,269.592 C121.654665,270.105336 121.167003,270.497665 120.573,270.769 C119.978997,271.040335 119.315337,271.176 118.582,271.176 C117.789996,271.176 117.071337,271.029335 116.426,270.736 C115.780663,270.442665 115.234336,270.046669 114.787,269.548 C114.339664,269.049331 113.991335,268.466337 113.742,267.799 C113.492665,267.131663 113.368,266.424004 113.368,265.676 C113.368,264.91333 113.488999,264.19467 113.731,263.52 C113.973001,262.84533 114.317664,262.258669 114.765,261.76 C115.212336,261.261331 115.754997,260.865335 116.393,260.572 C117.031003,260.278665 117.745996,260.132 118.538,260.132 C119.286004,260.132 119.982663,260.285998 120.628,260.594 C121.273337,260.902002 121.786665,261.378663 122.168,262.024 L122.212,262.024 L122.212,260.44 L124.72,260.44 Z M119.088,262.288 C118.603998,262.288 118.175002,262.375999 117.801,262.552 C117.426998,262.728001 117.111668,262.966332 116.855,263.267 C116.598332,263.567668 116.400334,263.923331 116.261,264.334 C116.121666,264.744669 116.052,265.184664 116.052,265.654 C116.052,266.079335 116.121666,266.489998 116.261,266.886 C116.400334,267.282002 116.598332,267.637665 116.855,267.953 C117.111668,268.268335 117.426998,268.521332 117.801,268.712 C118.175002,268.902668 118.596664,268.998 119.066,268.998 C119.550002,268.998 119.986331,268.906334 120.375,268.723 C120.763669,268.539666 121.093665,268.294002 121.365,267.986 C121.636335,267.677998 121.845333,267.322335 121.992,266.919 C122.138667,266.515665 122.212,266.094002 122.212,265.654 C122.212,265.199331 122.138667,264.766669 121.992,264.356 C121.845333,263.945331 121.636335,263.586002 121.365,263.278 C121.093665,262.969998 120.767335,262.728001 120.386,262.552 C120.004665,262.375999 119.572002,262.288 119.088,262.288 Z M133.702,260.132 C134.391337,260.132 134.981664,260.252999 135.473,260.495 C135.964336,260.737001 136.367665,261.055998 136.683,261.452 C136.998335,261.848002 137.229333,262.302664 137.376,262.816 C137.522667,263.329336 137.596,263.857331 137.596,264.4 L137.596,271 L134.956,271 L134.956,265.192 C134.956,264.883998 134.934,264.565002 134.89,264.235 C134.846,263.904998 134.754334,263.604335 134.615,263.333 C134.475666,263.061665 134.277668,262.838001 134.021,262.662 C133.764332,262.485999 133.423335,262.398 132.998,262.398 C132.572665,262.398 132.206002,262.478666 131.898,262.64 C131.589998,262.801334 131.333334,263.017665 131.128,263.289 C130.922666,263.560335 130.768667,263.864665 130.666,264.202 C130.563333,264.539335 130.512,264.883998 130.512,265.236 L130.512,271 L127.872,271 L127.872,254.368 L130.512,254.368 L130.512,261.914 L130.556,261.914 C130.658667,261.693999 130.808999,261.477668 131.007,261.265 C131.205001,261.052332 131.435999,260.861668 131.7,260.693 C131.964001,260.524332 132.264665,260.388667 132.602,260.286 C132.939335,260.183333 133.305998,260.132 133.702,260.132 Z M157.43,259.076 C157.019331,258.518664 156.484003,258.111668 155.824,257.855 C155.163997,257.598332 154.51867,257.47 153.888,257.47 C153.081329,257.47 152.348003,257.616665 151.688,257.91 C151.027997,258.203335 150.459669,258.606664 149.983,259.12 C149.506331,259.633336 149.139668,260.234663 148.883,260.924 C148.626332,261.613337 148.498,262.361329 148.498,263.168 C148.498,264.018671 148.622665,264.795996 148.872,265.5 C149.121335,266.204004 149.476998,266.808997 149.939,267.315 C150.401002,267.821003 150.954663,268.213332 151.6,268.492 C152.245337,268.770668 152.971329,268.91 153.778,268.91 C154.614004,268.91 155.354663,268.745002 156,268.415 C156.645337,268.084998 157.165998,267.648669 157.562,267.106 L159.784,268.668 C159.094663,269.533338 158.251338,270.204331 157.254,270.681 C156.256662,271.157669 155.090673,271.396 153.756,271.396 C152.538661,271.396 151.420338,271.194335 150.401,270.791 C149.381662,270.387665 148.505337,269.823004 147.772,269.097 C147.038663,268.370996 146.466669,267.505672 146.056,266.501 C145.645331,265.496328 145.44,264.385339 145.44,263.168 C145.44,261.921327 145.656331,260.795672 146.089,259.791 C146.521669,258.786328 147.115663,257.932004 147.871,257.228 C148.626337,256.523996 149.517328,255.981335 150.544,255.6 C151.570672,255.218665 152.685327,255.028 153.888,255.028 C154.386669,255.028 154.907331,255.075666 155.45,255.171 C155.992669,255.266334 156.513331,255.412999 157.012,255.611 C157.510669,255.809001 157.979998,256.054665 158.42,256.348 C158.860002,256.641335 159.233998,256.993331 159.542,257.404 L157.43,259.076 Z M160.428,265.676 C160.428,264.839996 160.578332,264.081003 160.879,263.399 C161.179668,262.716997 161.586664,262.134002 162.1,261.65 C162.613336,261.165998 163.221996,260.792001 163.926,260.528 C164.630004,260.263999 165.377996,260.132 166.17,260.132 C166.962004,260.132 167.709996,260.263999 168.414,260.528 C169.118004,260.792001 169.726664,261.165998 170.24,261.65 C170.753336,262.134002 171.160332,262.716997 171.461,263.399 C171.761668,264.081003 171.912,264.839996 171.912,265.676 C171.912,266.512004 171.761668,267.274663 171.461,267.964 C171.160332,268.653337 170.753336,269.243664 170.24,269.735 C169.726664,270.226336 169.118004,270.611332 168.414,270.89 C167.709996,271.168668 166.962004,271.308 166.17,271.308 C165.377996,271.308 164.630004,271.168668 163.926,270.89 C163.221996,270.611332 162.613336,270.226336 162.1,269.735 C161.586664,269.243664 161.179668,268.653337 160.879,267.964 C160.578332,267.274663 160.428,266.512004 160.428,265.676 Z M163.112,265.676 C163.112,266.086669 163.174333,266.497331 163.299,266.908 C163.423667,267.318669 163.610665,267.685332 163.86,268.008 C164.109335,268.330668 164.424665,268.594666 164.806,268.8 C165.187335,269.005334 165.641997,269.108 166.17,269.108 C166.698003,269.108 167.152665,269.005334 167.534,268.8 C167.915335,268.594666 168.230665,268.330668 168.48,268.008 C168.729335,267.685332 168.916333,267.318669 169.041,266.908 C169.165667,266.497331 169.228,266.086669 169.228,265.676 C169.228,265.265331 169.165667,264.858335 169.041,264.455 C168.916333,264.051665 168.729335,263.688668 168.48,263.366 C168.230665,263.043332 167.915335,262.783001 167.534,262.585 C167.152665,262.386999 166.698003,262.288 166.17,262.288 C165.641997,262.288 165.187335,262.386999 164.806,262.585 C164.424665,262.783001 164.109335,263.043332 163.86,263.366 C163.610665,263.688668 163.423667,264.051665 163.299,264.455 C163.174333,264.858335 163.112,265.265331 163.112,265.676 Z M184.04,271 L181.532,271 L181.532,269.306 L181.488,269.306 C181.253332,269.834003 180.846336,270.299665 180.267,270.703 C179.687664,271.106335 179.002004,271.308 178.21,271.308 C177.520663,271.308 176.930336,271.187001 176.439,270.945 C175.947664,270.702999 175.544335,270.384002 175.229,269.988 C174.913665,269.591998 174.682667,269.137336 174.536,268.624 C174.389333,268.110664 174.316,267.582669 174.316,267.04 L174.316,260.44 L176.956,260.44 L176.956,266.292 C176.956,266.600002 176.978,266.922665 177.022,267.26 C177.066,267.597335 177.161333,267.901665 177.308,268.173 C177.454667,268.444335 177.656332,268.667999 177.913,268.844 C178.169668,269.020001 178.510665,269.108 178.936,269.108 C179.346669,269.108 179.709665,269.023668 180.025,268.855 C180.340335,268.686332 180.596999,268.470001 180.795,268.206 C180.993001,267.941999 181.143333,267.637668 181.246,267.293 C181.348667,266.948332 181.4,266.600002 181.4,266.248 L181.4,260.44 L184.04,260.44 L184.04,271 Z M187.148,260.44 L189.656,260.44 L189.656,262.134 L189.7,262.134 C189.934668,261.605997 190.341664,261.140335 190.921,260.737 C191.500336,260.333665 192.185996,260.132 192.978,260.132 C193.667337,260.132 194.257664,260.252999 194.749,260.495 C195.240336,260.737001 195.643665,261.055998 195.959,261.452 C196.274335,261.848002 196.505333,262.302664 196.652,262.816 C196.798667,263.329336 196.872,263.857331 196.872,264.4 L196.872,271 L194.232,271 L194.232,265.148 C194.232,264.839998 194.21,264.517335 194.166,264.18 C194.122,263.842665 194.026667,263.538335 193.88,263.267 C193.733333,262.995665 193.531668,262.772001 193.275,262.596 C193.018332,262.419999 192.677335,262.332 192.252,262.332 C191.826665,262.332 191.460002,262.416332 191.152,262.585 C190.843998,262.753668 190.591001,262.969999 190.393,263.234 C190.194999,263.498001 190.044667,263.802332 189.942,264.147 C189.839333,264.491668 189.788,264.839998 189.788,265.192 L189.788,271 L187.148,271 L187.148,260.44 Z M198.374,262.552 L198.374,260.44 L200.222,260.44 L200.222,257.382 L202.818,257.382 L202.818,260.44 L205.458,260.44 L205.458,262.552 L202.818,262.552 L202.818,267.458 C202.818,267.927336 202.902332,268.315998 203.071,268.624 C203.239668,268.932002 203.61733,269.086 204.204,269.086 C204.380001,269.086 204.570666,269.067667 204.776,269.031 C204.981334,268.994333 205.164666,268.939334 205.326,268.866 L205.414,270.934 C205.179332,271.022 204.900668,271.091666 204.578,271.143 C204.255332,271.194334 203.947335,271.22 203.654,271.22 C202.949996,271.22 202.378002,271.121001 201.938,270.923 C201.497998,270.724999 201.149668,270.453668 200.893,270.109 C200.636332,269.764332 200.460334,269.368336 200.365,268.921 C200.269666,268.473664 200.222,267.993336 200.222,267.48 L200.222,262.552 L198.374,262.552 Z M207.312,260.44 L209.842,260.44 L209.842,262.2 L209.886,262.2 C210.179335,261.583997 210.589997,261.085335 211.118,260.704 C211.646003,260.322665 212.261996,260.132 212.966,260.132 C213.068667,260.132 213.178666,260.135667 213.296,260.143 C213.413334,260.150333 213.516,260.168667 213.604,260.198 L213.604,262.618 C213.427999,262.574 213.277667,262.544667 213.153,262.53 C213.028333,262.515333 212.907334,262.508 212.79,262.508 C212.188664,262.508 211.704669,262.617999 211.338,262.838 C210.971332,263.058001 210.685334,263.321998 210.48,263.63 C210.274666,263.938002 210.135334,264.253332 210.062,264.576 C209.988666,264.898668 209.952,265.155332 209.952,265.346 L209.952,271 L207.312,271 L207.312,260.44 Z M213.676,260.44 L216.602,260.44 L219.55,268.118 L219.594,268.118 L222.212,260.44 L224.962,260.44 L219.968,273.266 C219.777332,273.750002 219.572001,274.178998 219.352,274.553 C219.131999,274.927002 218.868002,275.242332 218.56,275.499 C218.251998,275.755668 217.889002,275.949999 217.471,276.082 C217.052998,276.214001 216.55067,276.28 215.964,276.28 C215.743999,276.28 215.520334,276.269 215.293,276.247 C215.065666,276.225 214.834668,276.184667 214.6,276.126 L214.82,273.838 C214.996001,273.896667 215.168332,273.937 215.337,273.959 C215.505668,273.981 215.663333,273.992 215.81,273.992 C216.088668,273.992 216.323332,273.959 216.514,273.893 C216.704668,273.827 216.865999,273.724334 216.998,273.585 C217.130001,273.445666 217.247333,273.273334 217.35,273.068 C217.452667,272.862666 217.562666,272.620668 217.68,272.342 L218.208,271 L213.676,260.44 Z M236.546,255.424 L238.944,255.424 L245.654,271 L242.486,271 L241.034,267.436 L234.28,267.436 L232.872,271 L229.77,271 L236.546,255.424 Z M240.066,265.06 L237.668,258.724 L235.226,265.06 L240.066,265.06 Z M247.002,260.44 L249.51,260.44 L249.51,262.134 L249.554,262.134 C249.788668,261.605997 250.195664,261.140335 250.775,260.737 C251.354336,260.333665 252.039996,260.132 252.832,260.132 C253.521337,260.132 254.111664,260.252999 254.603,260.495 C255.094336,260.737001 255.497665,261.055998 255.813,261.452 C256.128335,261.848002 256.359333,262.302664 256.506,262.816 C256.652667,263.329336 256.726,263.857331 256.726,264.4 L256.726,271 L254.086,271 L254.086,265.148 C254.086,264.839998 254.064,264.517335 254.02,264.18 C253.976,263.842665 253.880667,263.538335 253.734,263.267 C253.587333,262.995665 253.385668,262.772001 253.129,262.596 C252.872332,262.419999 252.531335,262.332 252.106,262.332 C251.680665,262.332 251.314002,262.416332 251.006,262.585 C250.697998,262.753668 250.445001,262.969999 250.247,263.234 C250.048999,263.498001 249.898667,263.802332 249.796,264.147 C249.693333,264.491668 249.642,264.839998 249.642,265.192 L249.642,271 L247.002,271 L247.002,260.44 Z M270.482,260.44 L270.482,270.054 C270.482,271.007338 270.364668,271.868996 270.13,272.639 C269.895332,273.409004 269.532336,274.061664 269.041,274.597 C268.549664,275.132336 267.930004,275.546665 267.182,275.84 C266.433996,276.133335 265.546672,276.28 264.52,276.28 C264.094665,276.28 263.643669,276.243334 263.167,276.17 C262.690331,276.096666 262.221002,275.986667 261.759,275.84 C261.296998,275.693333 260.853335,275.510001 260.428,275.29 C260.002665,275.069999 259.621335,274.820668 259.284,274.542 L260.802,272.496 C261.315336,272.980002 261.894663,273.350332 262.54,273.607 C263.185337,273.863668 263.837997,273.992 264.498,273.992 C265.12867,273.992 265.660331,273.900334 266.093,273.717 C266.525669,273.533666 266.870332,273.280668 267.127,272.958 C267.383668,272.635332 267.566999,272.254002 267.677,271.814 C267.787001,271.373998 267.842,270.890003 267.842,270.362 L267.842,269.592 L267.798,269.592 C267.416665,270.105336 266.929003,270.497665 266.335,270.769 C265.740997,271.040335 265.077337,271.176 264.344,271.176 C263.551996,271.176 262.833337,271.029335 262.188,270.736 C261.542663,270.442665 260.996336,270.046669 260.549,269.548 C260.101664,269.049331 259.753335,268.466337 259.504,267.799 C259.254665,267.131663 259.13,266.424004 259.13,265.676 C259.13,264.91333 259.250999,264.19467 259.493,263.52 C259.735001,262.84533 260.079664,262.258669 260.527,261.76 C260.974336,261.261331 261.516997,260.865335 262.155,260.572 C262.793003,260.278665 263.507996,260.132 264.3,260.132 C265.048004,260.132 265.744663,260.285998 266.39,260.594 C267.035337,260.902002 267.548665,261.378663 267.93,262.024 L267.974,262.024 L267.974,260.44 L270.482,260.44 Z M264.85,262.288 C264.365998,262.288 263.937002,262.375999 263.563,262.552 C263.188998,262.728001 262.873668,262.966332 262.617,263.267 C262.360332,263.567668 262.162334,263.923331 262.023,264.334 C261.883666,264.744669 261.814,265.184664 261.814,265.654 C261.814,266.079335 261.883666,266.489998 262.023,266.886 C262.162334,267.282002 262.360332,267.637665 262.617,267.953 C262.873668,268.268335 263.188998,268.521332 263.563,268.712 C263.937002,268.902668 264.358664,268.998 264.828,268.998 C265.312002,268.998 265.748331,268.906334 266.137,268.723 C266.525669,268.539666 266.855665,268.294002 267.127,267.986 C267.398335,267.677998 267.607333,267.322335 267.754,266.919 C267.900667,266.515665 267.974,266.094002 267.974,265.654 C267.974,265.199331 267.900667,264.766669 267.754,264.356 C267.607333,263.945331 267.398335,263.586002 267.127,263.278 C266.855665,262.969998 266.529335,262.728001 266.148,262.552 C265.766665,262.375999 265.334002,262.288 264.85,262.288 Z M283.226,271 L280.718,271 L280.718,269.306 L280.674,269.306 C280.439332,269.834003 280.032336,270.299665 279.453,270.703 C278.873664,271.106335 278.188004,271.308 277.396,271.308 C276.706663,271.308 276.116336,271.187001 275.625,270.945 C275.133664,270.702999 274.730335,270.384002 274.415,269.988 C274.099665,269.591998 273.868667,269.137336 273.722,268.624 C273.575333,268.110664 273.502,267.582669 273.502,267.04 L273.502,260.44 L276.142,260.44 L276.142,266.292 C276.142,266.600002 276.164,266.922665 276.208,267.26 C276.252,267.597335 276.347333,267.901665 276.494,268.173 C276.640667,268.444335 276.842332,268.667999 277.099,268.844 C277.355668,269.020001 277.696665,269.108 278.122,269.108 C278.532669,269.108 278.895665,269.023668 279.211,268.855 C279.526335,268.686332 279.782999,268.470001 279.981,268.206 C280.179001,267.941999 280.329333,267.637668 280.432,267.293 C280.534667,266.948332 280.586,266.600002 280.586,266.248 L280.586,260.44 L283.226,260.44 L283.226,271 Z M286.378,254.368 L289.018,254.368 L289.018,271 L286.378,271 L286.378,254.368 Z M298.726,269.658 L298.66,269.658 C298.395999,270.127336 297.97067,270.512332 297.384,270.813 C296.79733,271.113668 296.130004,271.264 295.382,271.264 C294.956665,271.264 294.513002,271.209001 294.051,271.099 C293.588998,270.988999 293.163669,270.805668 292.775,270.549 C292.386331,270.292332 292.063668,269.955002 291.807,269.537 C291.550332,269.118998 291.422,268.602003 291.422,267.986 C291.422,267.193996 291.645664,266.563336 292.093,266.094 C292.540336,265.624664 293.115996,265.265335 293.82,265.016 C294.524004,264.766665 295.304996,264.601667 296.163,264.521 C297.021004,264.440333 297.860663,264.4 298.682,264.4 L298.682,264.136 C298.682,263.475997 298.443669,262.988335 297.967,262.673 C297.490331,262.357665 296.922003,262.2 296.262,262.2 C295.704664,262.2 295.169336,262.317332 294.656,262.552 C294.142664,262.786668 293.717335,263.072665 293.38,263.41 L292.016,261.804 C292.617336,261.246664 293.310329,260.828668 294.095,260.55 C294.879671,260.271332 295.675329,260.132 296.482,260.132 C297.420671,260.132 298.19433,260.263999 298.803,260.528 C299.41167,260.792001 299.891998,261.136665 300.244,261.562 C300.596002,261.987335 300.841666,262.463997 300.981,262.992 C301.120334,263.520003 301.19,264.047997 301.19,264.576 L301.19,271 L298.726,271 L298.726,269.658 Z M298.682,266.182 L298.088,266.182 C297.662665,266.182 297.215336,266.200333 296.746,266.237 C296.276664,266.273667 295.844002,266.354333 295.448,266.479 C295.051998,266.603667 294.722001,266.779666 294.458,267.007 C294.193999,267.234334 294.062,267.545998 294.062,267.942 C294.062,268.191335 294.116999,268.400332 294.227,268.569 C294.337001,268.737668 294.479999,268.873333 294.656,268.976 C294.832001,269.078667 295.029999,269.152 295.25,269.196 C295.470001,269.24 295.689999,269.262 295.91,269.262 C296.819338,269.262 297.508664,269.020002 297.978,268.536 C298.447336,268.051998 298.682,267.392004 298.682,266.556 L298.682,266.182 Z M304.21,260.44 L306.74,260.44 L306.74,262.2 L306.784,262.2 C307.077335,261.583997 307.487997,261.085335 308.016,260.704 C308.544003,260.322665 309.159996,260.132 309.864,260.132 C309.966667,260.132 310.076666,260.135667 310.194,260.143 C310.311334,260.150333 310.414,260.168667 310.502,260.198 L310.502,262.618 C310.325999,262.574 310.175667,262.544667 310.051,262.53 C309.926333,262.515333 309.805334,262.508 309.688,262.508 C309.086664,262.508 308.602669,262.617999 308.236,262.838 C307.869332,263.058001 307.583334,263.321998 307.378,263.63 C307.172666,263.938002 307.033334,264.253332 306.96,264.576 C306.886666,264.898668 306.85,265.155332 306.85,265.346 L306.85,271 L304.21,271 L304.21,260.44 Z" id="path-15"></path>
        <filter x="-2.3%" y="-18.3%" width="104.6%" height="145.6%" filterUnits="objectBoundingBox" id="filter-16">
            <feOffset dx="0" dy="1" in="SourceAlpha" result="shadowOffsetOuter1"></feOffset>
            <feGaussianBlur stdDeviation="1.5" in="shadowOffsetOuter1" result="shadowBlurOuter1"></feGaussianBlur>
            <feColorMatrix values="0 0 0 0 0.117647059   0 0 0 0 0.211764706   0 0 0 0 0.341176471  0 0 0 0.65 0" type="matrix" in="shadowBlurOuter1"></feColorMatrix>
        </filter>
    </defs>
    <g id="ngHighCountry" stroke="none" stroke-width="1" fill="none" fill-rule="evenodd">
        <g transform="translate(-45.000000, -37.500000)">
            <mask id="mask-2" fill="white">
                <use xlink:href="#path-1"></use>
            </mask>
            <g id="canvas"></g>
            <mask id="mask-5" fill="white">
                <use xlink:href="#path-4"></use>
            </mask>
            <g id="shield" fill-rule="nonzero">
                <use fill="black" fill-opacity="1" filter="url(#filter-6)" xlink:href="#path-4"></use>
                <path stroke="#FFFFFF" stroke-width="3" d="M199.722222,48.4074777 L340.833884,98.7287148 L319.334033,285.111225 L199.722222,351.360099 L80.1104112,285.111225 L58.6105603,98.7287148 L199.722222,48.4074777 Z" fill="url(#linearGradient-3)" fill-rule="evenodd"></path>
            </g>
            <polygon id="shield-shade" fill="url(#linearGradient-7)" fill-rule="nonzero" mask="url(#mask-5)" points="199.444444 83.3 199.444444 235.1 199.444444 350 317.794444 284.45 339.094444 99.8 199.444444 50"></polygon>
            <path d="M154.391602,157.476562 C139.250418,156.277081 114.141602,157.958008 96.3496094,164.552734 C78.1741293,171.289603 68.087756,179.167396 61.6897975,184.023069 C55.632883,188.61991 32.373073,184.71699 30.8761062,192.902817 C25.7723003,220.811833 65.4291408,271.507203 65.4291408,271.507203 L143.976595,274.837698 L230.300832,278.497936 C230.300832,278.497936 343.492791,283.440978 382.704336,284.530374 C421.91588,285.619769 481.388889,131.420213 481.388889,131.420213 C481.388889,131.420213 437.785817,155.615898 397.765515,170.920614 C363.503906,184.023069 333.339844,188.659428 305.848401,188.659428 C279.85109,188.659428 248.492752,181.410162 235.217175,177.628685 C194.61048,166.062088 179.900381,159.497362 154.391602,157.476562 Z" id="hill-5" fill="url(#linearGradient-8)" mask="url(#mask-5)"></path>
            <path d="M238.925856,197.023437 C193.960938,197.023437 164.386719,227.830078 130.417969,227.830078 C96.4492188,227.830078 84.0039063,204.255859 49.8789063,204.255859 C-30.2266503,204.255859 45.4667969,287.283901 45.4667969,287.283901 L238.925856,287.283901 L300.619456,289.899774 C300.619456,289.899774 381.514691,293.432433 409.538122,294.210994 C437.561554,294.989556 400.205327,261.943359 400.205327,261.943359 C400.205327,261.943359 344.991684,236.718908 340.326172,233.033203 C312.816406,211.300781 291.158252,197.023437 238.925856,197.023437 Z" id="hill-4" fill="url(#linearGradient-9)" mask="url(#mask-5)"></path>
            <g id="A-Copy" mask="url(#mask-5)" fill-rule="nonzero">
                <use fill="black" fill-opacity="1" filter="url(#filter-11)" xlink:href="#path-10"></use>
                <use fill="#FFFFFF" fill-rule="evenodd" xlink:href="#path-10"></use>
            </g>
            <path d="M18.7553669,251.050692 C-17.4293272,271.964864 -0.949719706,342.162238 -0.949719706,342.162238 L181.170973,349.884347 C181.170973,349.884347 306.205162,355.344534 349.519048,356.547903 C372.323777,357.181476 378.602968,343.975098 379.436484,331.326589 C380.186097,319.951305 376.5312,309.027231 376.5312,309.027231 C376.5312,309.027231 354.594169,270.904891 255.882812,261.433594 C192.861328,255.386719 181.484375,228.671875 136.054687,222.734375 C90.625,216.796875 59.0488281,227.761719 18.7553669,251.050692 Z" id="hill-3" fill="url(#linearGradient-12)" mask="url(#mask-5)"></path>
            <path d="M66.9277344,294.019531 C33.4856294,294.019531 -33.7163046,284.020168 -53.588025,299.101631 C-98.9317186,333.514819 -174.834515,370.952148 -174.834515,370.952148 L105.082269,382.820914 C105.082269,382.820914 297.257949,391.21314 363.830745,393.0627 C430.403542,394.91226 405.348019,320.024136 405.348019,320.024136 C405.348019,320.024136 458.803085,286.520228 363.830745,250.249022 C361.81266,249.478289 344.461497,233.789429 342.122772,233.272392 C310.958984,226.382812 267.324219,230.203125 234.773438,244.207031 C202.222656,258.210938 181.925781,276.671875 165.167969,294.019531 C134.947265,325.303948 90.3101846,294.019531 66.9277344,294.019531 Z" id="hill-2" fill="url(#linearGradient-13)" mask="url(#mask-5)"></path>
            <path d="M149.056641,280.582031 C110.642667,276.974809 74.890625,287.359375 52.3691406,305.78125 C20.2587541,332.046549 15.7514823,412.598382 15.7514823,412.598382 L226.944013,421.553168 C226.944013,421.553168 371.937348,427.884962 422.165409,429.280424 C472.39347,430.675886 453.489497,374.17405 453.489497,374.17405 C453.489497,374.17405 381.248047,299.320312 300.353516,305.78125 C219.458984,312.242187 196.641646,285.050449 149.056641,280.582031 Z" id="hill-1-front" fill="url(#linearGradient-14)" mask="url(#mask-5)"></path>
            <g id="High-Country-Angular-Copy" mask="url(#mask-5)">
                <use fill="black" fill-opacity="1" filter="url(#filter-16)" xlink:href="#path-15"></use>
                <use fill="#FFFFFF" fill-rule="evenodd" xlink:href="#path-15"></use>
                <use fill="#FFFFFF" fill-rule="evenodd" xlink:href="#path-15"></use>
            </g>
        </g>
    </g>
</svg>